<svg width="49" height="48" viewBox="0 0 49 48" fill="none" xmlns="http://www.w3.org/2000/svg">
<rect x="0.5" width="48" height="48" rx="24" fill="#98FB98" fill-opacity="0.1"/>
<path d="M19.817 15.769C22.9295 15.424 26.0705 15.424 29.183 15.769C29.7441 15.8321 30.2854 16.0133 30.7715 16.3006C31.2575 16.5879 31.6772 16.9749 32.003 17.436L24 25.439L21.53 22.969C21.4608 22.8974 21.378 22.8404 21.2865 22.8011C21.195 22.7618 21.0965 22.7412 20.9969 22.7404C20.8974 22.7395 20.7986 22.7586 20.7065 22.7963C20.6143 22.8341 20.5306 22.8898 20.4602 22.9603C20.3898 23.0307 20.3342 23.1145 20.2965 23.2067C20.2588 23.2989 20.2399 23.3976 20.2408 23.4972C20.2417 23.5968 20.2625 23.6952 20.3018 23.7867C20.3412 23.8782 20.3983 23.9609 20.47 24.03L23.47 27.03C23.6106 27.1705 23.8013 27.2494 24 27.2494C24.1988 27.2494 24.3894 27.1705 24.53 27.03L32.646 18.915C32.668 19.0244 32.6857 19.1354 32.699 19.248C33.069 22.405 33.069 25.595 32.699 28.752C32.484 30.588 31.009 32.027 29.183 32.232C26.0705 32.5771 22.9295 32.5771 19.817 32.232C17.99 32.027 16.515 30.588 16.301 28.752C15.9326 25.5948 15.9326 22.4053 16.301 19.248C16.515 17.411 17.991 15.973 19.817 15.768" fill="#4CAF50"/>
</svg>
