<svg width="40" height="40" viewBox="0 0 40 40" fill="none" xmlns="http://www.w3.org/2000/svg">
<path d="M0 20C0 8.95431 8.95431 0 20 0C31.0457 0 40 8.95431 40 20C40 31.0457 31.0457 40 20 40C8.95431 40 0 31.0457 0 20Z" fill="#FFD4C5"/>
<path d="M15.3172 11.7686C18.4297 11.4235 21.5708 11.4235 24.6832 11.7686C25.2443 11.8317 25.7857 12.0128 26.2717 12.3001C26.7577 12.5875 27.1774 12.9744 27.5032 13.4356L19.5002 21.4386L17.0302 18.9686C16.961 18.897 16.8782 18.8399 16.7867 18.8006C16.6952 18.7613 16.5967 18.7407 16.4972 18.7399C16.3976 18.7391 16.2988 18.7581 16.2067 18.7958C16.1145 18.8336 16.0308 18.8893 15.9604 18.9598C15.89 19.0302 15.8344 19.114 15.7967 19.2062C15.759 19.2984 15.7401 19.3971 15.741 19.4967C15.7419 19.5963 15.7627 19.6947 15.802 19.7862C15.8414 19.8777 15.8986 19.9604 15.9702 20.0296L18.9702 23.0296C19.1108 23.17 19.3015 23.2489 19.5002 23.2489C19.699 23.2489 19.8896 23.17 20.0302 23.0296L28.1462 14.9146C28.1682 15.0239 28.1859 15.1349 28.1992 15.2476C28.5692 18.4046 28.5692 21.5946 28.1992 24.7516C27.9842 26.5876 26.5092 28.0266 24.6832 28.2316C21.5708 28.5766 18.4297 28.5766 15.3172 28.2316C13.4902 28.0266 12.0152 26.5876 11.8012 24.7516C11.4328 21.5943 11.4328 18.4048 11.8012 15.2476C12.0152 13.4106 13.4912 11.9726 15.3172 11.7676" fill="#FF5212"/>
</svg>
