<svg width="48" height="48" viewBox="0 0 48 48" fill="none" xmlns="http://www.w3.org/2000/svg">
<rect width="48" height="48" rx="24" fill="#FF7F50" fill-opacity="0.1"/>
<path fill-rule="evenodd" clip-rule="evenodd" d="M33.01 22.171L33.013 25.794C32.987 26.1393 32.954 26.484 32.914 26.828C32.8786 27.1116 32.7486 27.3749 32.545 27.5754C32.3414 27.7759 32.0761 27.9019 31.792 27.933C29.952 28.139 28.048 28.139 26.208 27.933C25.924 27.9019 25.6587 27.7759 25.4551 27.5754C25.2515 27.3749 25.1214 27.1116 25.086 26.828C24.8659 24.9491 24.8659 23.0509 25.086 21.172C25.1214 20.8884 25.2515 20.6251 25.4551 20.4246C25.6587 20.2241 25.924 20.0981 26.208 20.067C28.0637 19.8618 29.9363 19.8618 31.792 20.067C32.379 20.132 32.847 20.597 32.914 21.172C32.9527 21.5047 32.9847 21.838 33.01 22.172M29 22.5C28.6022 22.5 28.2207 22.658 27.9394 22.9393C27.6581 23.2206 27.5 23.6022 27.5 24C27.5 24.3978 27.6581 24.7794 27.9394 25.0607C28.2207 25.342 28.6022 25.5 29 25.5C29.3978 25.5 29.7794 25.342 30.0607 25.0607C30.342 24.7794 30.5 24.3978 30.5 24C30.5 23.6022 30.342 23.2206 30.0607 22.9393C29.7794 22.658 29.3978 22.5 29 22.5Z" fill="#FF7F50"/>
<path d="M32.4042 18.0401C32.5592 18.3091 32.2672 18.6101 31.9582 18.5761C29.9922 18.3594 28.0083 18.3594 26.0422 18.5761C25.4211 18.6447 24.8414 18.9213 24.3973 19.361C23.9533 19.8007 23.6709 20.3776 23.5962 20.9981C23.3644 22.9927 23.3644 25.0075 23.5962 27.0021C23.6709 27.6225 23.9533 28.1994 24.3973 28.6391C24.8414 29.0788 25.4211 29.3555 26.0422 29.4241C28.0083 29.6408 29.9922 29.6408 31.9582 29.4241C32.2692 29.3891 32.5642 29.6931 32.4072 29.9641C32.0146 30.6413 31.4676 31.2162 30.8107 31.6419C30.1538 32.0676 29.4057 32.3322 28.6272 32.4141L27.9752 32.4821C24.6643 32.8299 21.3249 32.8067 18.0192 32.4131L17.5872 32.3621C16.7206 32.2591 15.913 31.8707 15.2916 31.2579C14.6701 30.6452 14.2704 29.8431 14.1552 28.9781C13.7139 25.6741 13.7139 22.3261 14.1552 19.0221C14.2704 18.157 14.6701 17.3549 15.2916 16.7422C15.913 16.1295 16.7206 15.741 17.5872 15.6381L18.0192 15.5871C21.3249 15.1934 24.6643 15.1703 27.9752 15.5181L28.6272 15.5871C29.4057 15.6689 30.1537 15.9338 30.8102 16.3602C31.4666 16.7865 32.0129 17.3622 32.4042 18.0401Z" fill="#FF7F50"/>
</svg>
