<svg width="48" height="48" viewBox="0 0 48 48" fill="none" xmlns="http://www.w3.org/2000/svg">
<rect width="48" height="48" rx="24" fill="#98FB98" fill-opacity="0.1"/>
<path d="M24.512 14.6335C24.1787 14.531 23.8223 14.531 23.489 14.6335L20.503 15.5515C18.9689 16.0235 17.5119 16.7168 16.178 17.6095C15.33 18.1765 15.732 19.4995 16.752 19.4995H31.248C32.268 19.4995 32.67 18.1765 31.823 17.6095C30.4888 16.7167 29.0314 16.0234 27.497 15.5515L24.512 14.6335ZM16.25 32.9995C16.25 32.8006 16.329 32.6098 16.4697 32.4692C16.6103 32.3285 16.8011 32.2495 17 32.2495H31C31.1989 32.2495 31.3897 32.3285 31.5303 32.4692C31.671 32.6098 31.75 32.8006 31.75 32.9995C31.75 33.1984 31.671 33.3892 31.5303 33.5299C31.3897 33.6705 31.1989 33.7495 31 33.7495H17C16.8011 33.7495 16.6103 33.6705 16.4697 33.5299C16.329 33.3892 16.25 33.1984 16.25 32.9995ZM18.25 28.9995C18.25 29.1984 18.329 29.3892 18.4697 29.5299C18.6103 29.6705 18.8011 29.7495 19 29.7495C19.1989 29.7495 19.3897 29.6705 19.5303 29.5299C19.671 29.3892 19.75 29.1984 19.75 28.9995V22.9995C19.75 22.8006 19.671 22.6098 19.5303 22.4692C19.3897 22.3285 19.1989 22.2495 19 22.2495C18.8011 22.2495 18.6103 22.3285 18.4697 22.4692C18.329 22.6098 18.25 22.8006 18.25 22.9995V28.9995ZM24 29.7495C23.8011 29.7495 23.6103 29.6705 23.4697 29.5299C23.329 29.3892 23.25 29.1984 23.25 28.9995V22.9995C23.25 22.8006 23.329 22.6098 23.4697 22.4692C23.6103 22.3285 23.8011 22.2495 24 22.2495C24.1989 22.2495 24.3897 22.3285 24.5303 22.4692C24.671 22.6098 24.75 22.8006 24.75 22.9995V28.9995C24.75 29.1984 24.671 29.3892 24.5303 29.5299C24.3897 29.6705 24.1989 29.7495 24 29.7495ZM28.25 28.9995C28.25 29.1984 28.329 29.3892 28.4697 29.5299C28.6103 29.6705 28.8011 29.7495 29 29.7495C29.1989 29.7495 29.3897 29.6705 29.5303 29.5299C29.671 29.3892 29.75 29.1984 29.75 28.9995V22.9995C29.75 22.8006 29.671 22.6098 29.5303 22.4692C29.3897 22.3285 29.1989 22.2495 29 22.2495C28.8011 22.2495 28.6103 22.3285 28.4697 22.4692C28.329 22.6098 28.25 22.8006 28.25 22.9995V28.9995Z" fill="#08CE08"/>
</svg>
