<svg width="24" height="24" viewBox="0 0 24 24" fill="none" xmlns="http://www.w3.org/2000/svg">
<path d="M7.48297 5.25961C6.92766 5.32113 6.40927 5.56791 6.0114 5.96015C5.61353 6.3524 5.35939 6.86723 5.28997 7.42161C4.9343 10.4626 4.9343 13.5346 5.28997 16.5756C5.35918 17.1302 5.61323 17.6452 6.01112 18.0377C6.409 18.4301 6.92751 18.677 7.48297 18.7386C10.46 19.0716 13.54 19.0716 16.517 18.7386C17.0723 18.6768 17.5905 18.4298 17.9882 18.0374C18.3859 17.645 18.6398 17.13 18.709 16.5756C18.965 14.3906 19.037 12.1896 18.925 9.99561C18.9236 9.96755 18.9281 9.93951 18.9383 9.91332C18.9484 9.88713 18.964 9.86338 18.984 9.84361L20.022 8.80361C20.0487 8.77633 20.0827 8.75735 20.12 8.74897C20.1572 8.74059 20.1961 8.74316 20.2319 8.75637C20.2678 8.76958 20.299 8.79287 20.3219 8.82343C20.3448 8.85398 20.3584 8.89051 20.361 8.92861C20.5564 11.5351 20.5022 14.1544 20.199 16.7506C19.984 18.5866 18.509 20.0256 16.683 20.2306C13.5705 20.5757 10.4294 20.5757 7.31697 20.2306C5.48997 20.0256 4.01497 18.5866 3.80097 16.7506C3.43255 13.5933 3.43255 10.4039 3.80097 7.24661C4.01497 5.40961 5.49097 3.97161 7.31697 3.76661C10.4294 3.42155 13.5705 3.42155 16.683 3.76661C17.312 3.83766 17.9152 4.05701 18.443 4.40661C18.4665 4.42248 18.4862 4.44343 18.5006 4.46792C18.515 4.49241 18.5237 4.51982 18.5261 4.54812C18.5285 4.57642 18.5245 4.6049 18.5145 4.63146C18.5044 4.65803 18.4885 4.682 18.468 4.70161L17.665 5.50461C17.6325 5.53643 17.5906 5.55686 17.5455 5.56281C17.5004 5.56876 17.4546 5.55992 17.415 5.53761C17.1361 5.38829 16.8313 5.29328 16.517 5.25761C13.5148 4.92483 10.4851 4.92483 7.48297 5.25761" fill="#FF5212"/>
<path d="M21.0299 6.02918C21.1036 5.96052 21.1627 5.87771 21.2037 5.78571C21.2447 5.69372 21.2667 5.5944 21.2685 5.4937C21.2703 5.393 21.2518 5.29297 21.214 5.19958C21.1763 5.10619 21.1202 5.02136 21.0489 4.95014C20.9777 4.87892 20.8929 4.82278 20.7995 4.78505C20.7061 4.74733 20.6061 4.72881 20.5054 4.73059C20.4047 4.73236 20.3054 4.7544 20.2134 4.7954C20.1214 4.83639 20.0386 4.89549 19.9699 4.96918L11.4999 13.4392L9.02991 10.9692C8.96125 10.8955 8.87845 10.8364 8.78645 10.7954C8.69445 10.7544 8.59513 10.7324 8.49443 10.7306C8.39373 10.7288 8.2937 10.7473 8.20031 10.7851C8.10692 10.8228 8.02209 10.8789 7.95087 10.9501C7.87965 11.0214 7.82351 11.1062 7.78579 11.1996C7.74807 11.293 7.72954 11.393 7.73132 11.4937C7.73309 11.5944 7.75514 11.6937 7.79613 11.7857C7.83712 11.8777 7.89622 11.9605 7.96991 12.0292L10.9699 15.0292C11.1105 15.1696 11.3012 15.2485 11.4999 15.2485C11.6987 15.2485 11.8893 15.1696 12.0299 15.0292L21.0299 6.02918Z" fill="#FF5212"/>
</svg>
