<svg width="25" height="25" viewBox="0 0 25 25" fill="none" xmlns="http://www.w3.org/2000/svg">
<path d="M7.817 4.26905C10.9295 3.92399 14.0705 3.92399 17.183 4.26905C17.7441 4.33215 18.2854 4.51331 18.7715 4.80063C19.2575 5.08794 19.6772 5.4749 20.003 5.93605L12 13.939L9.53 11.469C9.46078 11.3974 9.378 11.3404 9.28647 11.3011C9.19495 11.2618 9.09653 11.2412 8.99694 11.2404C8.89736 11.2395 8.79861 11.2586 8.70646 11.2963C8.6143 11.3341 8.53059 11.3898 8.4602 11.4603C8.38982 11.5307 8.33417 11.6145 8.2965 11.7067C8.25883 11.7989 8.2399 11.8976 8.24081 11.9972C8.24173 12.0968 8.26246 12.1952 8.30181 12.2867C8.34116 12.3782 8.39834 12.4609 8.47 12.53L11.47 15.53C11.6106 15.6705 11.8012 15.7494 12 15.7494C12.1988 15.7494 12.3894 15.6705 12.53 15.53L20.646 7.41505C20.668 7.52438 20.6857 7.63538 20.699 7.74805C21.069 10.905 21.069 14.095 20.699 17.252C20.484 19.088 19.009 20.527 17.183 20.732C14.0705 21.0771 10.9295 21.0771 7.817 20.732C5.99 20.527 4.515 19.088 4.301 17.252C3.93258 14.0948 3.93258 10.9053 4.301 7.74805C4.515 5.91105 5.991 4.47305 7.817 4.26805" fill="#1FF61F"/>
</svg>
