<svg width="49" height="48" viewBox="0 0 49 48" fill="none" xmlns="http://www.w3.org/2000/svg">
<rect x="0.5" width="48" height="48" rx="24" fill="#98FB98" fill-opacity="0.1"/>
<path d="M25.97 19.5298C26.1106 19.6703 26.3012 19.7492 26.5 19.7492C26.6987 19.7492 26.8893 19.6703 27.03 19.5298L27.75 18.8098V28.9998C27.75 29.1987 27.829 29.3895 27.9696 29.5302C28.1103 29.6708 28.3011 29.7498 28.5 29.7498C28.6989 29.7498 28.8896 29.6708 29.0303 29.5302C29.171 29.3895 29.25 29.1987 29.25 28.9998V18.8098L29.97 19.5298C30.0386 19.6035 30.1214 19.6626 30.2134 19.7036C30.3054 19.7446 30.4047 19.7666 30.5054 19.7684C30.6062 19.7702 30.7062 19.7517 30.7996 19.714C30.893 19.6762 30.9778 19.6201 31.049 19.5489C31.1202 19.4776 31.1764 19.3928 31.2141 19.2994C31.2518 19.206 31.2703 19.106 31.2686 19.0053C31.2668 18.9046 31.2447 18.8053 31.2038 18.7133C31.1628 18.6213 31.1037 18.5385 31.03 18.4698L29.03 16.4698C28.8893 16.3294 28.6987 16.2505 28.5 16.2505C28.3012 16.2505 28.1106 16.3294 27.97 16.4698L25.97 18.4698C25.8295 18.6105 25.7506 18.8011 25.7506 18.9998C25.7506 19.1986 25.8295 19.3892 25.97 19.5298ZM21.25 29.1898L21.97 28.4698C22.0386 28.3961 22.1214 28.337 22.2134 28.296C22.3054 28.2551 22.4047 28.233 22.5054 28.2312C22.6062 28.2295 22.7062 28.248 22.7996 28.2857C22.893 28.3234 22.9778 28.3796 23.049 28.4508C23.1202 28.522 23.1764 28.6068 23.2141 28.7002C23.2518 28.7936 23.2703 28.8936 23.2686 28.9944C23.2668 29.0951 23.2447 29.1944 23.2038 29.2864C23.1628 29.3784 23.1037 29.4612 23.03 29.5298L21.03 31.5298C20.8893 31.6703 20.6987 31.7492 20.5 31.7492C20.3012 31.7492 20.1106 31.6703 19.97 31.5298L17.97 29.5298C17.8963 29.4612 17.8372 29.3784 17.7962 29.2864C17.7552 29.1944 17.7332 29.0951 17.7314 28.9944C17.7296 28.8936 17.7481 28.7936 17.7858 28.7002C17.8236 28.6068 17.8797 28.522 17.9509 28.4508C18.0222 28.3796 18.107 28.3234 18.2004 28.2857C18.2938 28.248 18.3938 28.2295 18.4945 28.2312C18.5952 28.233 18.6945 28.2551 18.7865 28.296C18.8785 28.337 18.9613 28.3961 19.03 28.4698L19.75 29.1898V18.9998C19.75 18.8009 19.829 18.6102 19.9696 18.4695C20.1103 18.3288 20.3011 18.2498 20.5 18.2498C20.6989 18.2498 20.8896 18.3288 21.0303 18.4695C21.171 18.6102 21.25 18.8009 21.25 18.9998V29.1898Z" fill="#08CE08"/>
</svg>
