<svg width="48" height="48" viewBox="0 0 48 48" fill="none" xmlns="http://www.w3.org/2000/svg">
<rect width="48" height="48" rx="24" fill="#98FB98" fill-opacity="0.1"/>
<path d="M18.7028 17.4242C18.8524 17.2636 18.9338 17.0513 18.9299 16.8319C18.9261 16.6125 18.8372 16.4032 18.682 16.248C18.5269 16.0929 18.3176 16.004 18.0982 16.0001C17.8788 15.9963 17.6665 16.0777 17.5059 16.2273L15.2477 18.4855C15.0891 18.6443 15 18.8596 15 19.084C15 19.3084 15.0891 19.5236 15.2477 19.6824L17.5059 21.9407C17.5834 22.0239 17.6769 22.0906 17.7808 22.1369C17.8847 22.1832 17.9968 22.2081 18.1105 22.2101C18.2242 22.2121 18.3372 22.1912 18.4426 22.1486C18.5481 22.106 18.6439 22.0426 18.7243 21.9622C18.8047 21.8818 18.8681 21.786 18.9107 21.6805C18.9533 21.5751 18.9742 21.4621 18.9722 21.3484C18.9702 21.2347 18.9453 21.1226 18.899 21.0187C18.8527 20.9148 18.786 20.8213 18.7028 20.7438L17.8898 19.9308H29.3956C29.6202 19.9308 29.8356 19.8416 29.9945 19.6828C30.1533 19.524 30.2425 19.3086 30.2425 19.084C30.2425 18.8594 30.1533 18.644 29.9945 18.4852C29.8356 18.3264 29.6202 18.2371 29.3956 18.2371H17.8898L18.7028 17.4242ZM28.7972 25.2603C28.6386 25.4191 28.5495 25.6343 28.5495 25.8588C28.5495 26.0832 28.6386 26.2984 28.7972 26.4572L29.6102 27.2702H18.1044C17.8798 27.2702 17.6644 27.3594 17.5055 27.5182C17.3467 27.677 17.2575 27.8924 17.2575 28.117C17.2575 28.3416 17.3467 28.557 17.5055 28.7158C17.6644 28.8746 17.8798 28.9639 18.1044 28.9639H29.6102L28.7972 29.7768C28.714 29.8544 28.6473 29.9478 28.601 30.0517C28.5547 30.1556 28.5298 30.2677 28.5278 30.3814C28.5258 30.4952 28.5467 30.6081 28.5893 30.7135C28.6319 30.819 28.6953 30.9148 28.7757 30.9952C28.8561 31.0756 28.9519 31.139 29.0574 31.1816C29.1628 31.2242 29.2758 31.2451 29.3895 31.2431C29.5032 31.2411 29.6153 31.2162 29.7192 31.1699C29.8231 31.1236 29.9166 31.0569 29.9941 30.9737L32.2523 28.7154C32.4109 28.5567 32.5 28.3414 32.5 28.117C32.5 27.8926 32.4109 27.6774 32.2523 27.5186L29.9941 25.2603C29.8353 25.1017 29.6201 25.0126 29.3956 25.0126C29.1712 25.0126 28.956 25.1017 28.7972 25.2603Z" fill="#08CE08"/>
</svg>
