<svg width="48" height="48" viewBox="0 0 48 48" fill="none" xmlns="http://www.w3.org/2000/svg">
<rect width="48" height="48" rx="24" fill="#4169E1" fill-opacity="0.1"/>
<path d="M25.4702 19.5298C25.6108 19.6703 25.8014 19.7492 26.0002 19.7492C26.1989 19.7492 26.3895 19.6703 26.5302 19.5298L27.2502 18.8098V28.9998C27.2502 29.1987 27.3292 29.3895 27.4698 29.5302C27.6105 29.6708 27.8012 29.7498 28.0002 29.7498C28.1991 29.7498 28.3898 29.6708 28.5305 29.5302C28.6711 29.3895 28.7502 29.1987 28.7502 28.9998V18.8098L29.4702 19.5298C29.5388 19.6035 29.6216 19.6626 29.7136 19.7036C29.8056 19.7446 29.9049 19.7666 30.0056 19.7684C30.1063 19.7702 30.2064 19.7517 30.2998 19.714C30.3931 19.6762 30.478 19.6201 30.5492 19.5489C30.6204 19.4776 30.6766 19.3928 30.7143 19.2994C30.752 19.206 30.7705 19.106 30.7687 19.0053C30.767 18.9046 30.7449 18.8053 30.7039 18.7133C30.6629 18.6213 30.6038 18.5385 30.5302 18.4698L28.5302 16.4698C28.3895 16.3294 28.1989 16.2505 28.0002 16.2505C27.8014 16.2505 27.6108 16.3294 27.4702 16.4698L25.4702 18.4698C25.3297 18.6105 25.2508 18.8011 25.2508 18.9998C25.2508 19.1986 25.3297 19.3892 25.4702 19.5298ZM20.7502 29.1898L21.4702 28.4698C21.5388 28.3961 21.6216 28.337 21.7136 28.296C21.8056 28.2551 21.9049 28.233 22.0056 28.2312C22.1063 28.2295 22.2064 28.248 22.2998 28.2857C22.3931 28.3234 22.478 28.3796 22.5492 28.4508C22.6204 28.522 22.6766 28.6068 22.7143 28.7002C22.752 28.7936 22.7705 28.8936 22.7687 28.9944C22.767 29.0951 22.7449 29.1944 22.7039 29.2864C22.6629 29.3784 22.6038 29.4612 22.5302 29.5298L20.5302 31.5298C20.3895 31.6703 20.1989 31.7492 20.0002 31.7492C19.8014 31.7492 19.6108 31.6703 19.4702 31.5298L17.4702 29.5298C17.3965 29.4612 17.3374 29.3784 17.2964 29.2864C17.2554 29.1944 17.2333 29.0951 17.2316 28.9944C17.2298 28.8936 17.2483 28.7936 17.286 28.7002C17.3238 28.6068 17.3799 28.522 17.4511 28.4508C17.5223 28.3796 17.6072 28.3234 17.7006 28.2857C17.7939 28.248 17.894 28.2295 17.9947 28.2312C18.0954 28.233 18.1947 28.2551 18.2867 28.296C18.3787 28.337 18.4615 28.3961 18.5302 28.4698L19.2502 29.1898V18.9998C19.2502 18.8009 19.3292 18.6102 19.4698 18.4695C19.6105 18.3288 19.8012 18.2498 20.0002 18.2498C20.1991 18.2498 20.3898 18.3288 20.5305 18.4695C20.6711 18.6102 20.7502 18.8009 20.7502 18.9998V29.1898Z" fill="#4169E1"/>
</svg>
