<svg width="48" height="48" viewBox="0 0 48 48" fill="none" xmlns="http://www.w3.org/2000/svg">
<rect width="48" height="48" rx="24" fill="#FF7F50" fill-opacity="0.1"/>
<path d="M25.47 19.5303C25.6106 19.6708 25.8013 19.7497 26 19.7497C26.1988 19.7497 26.3894 19.6708 26.53 19.5303L27.25 18.8103V29.0003C27.25 29.1992 27.329 29.39 27.4697 29.5306C27.6103 29.6713 27.8011 29.7503 28 29.7503C28.1989 29.7503 28.3897 29.6713 28.5303 29.5306C28.671 29.39 28.75 29.1992 28.75 29.0003V18.8103L29.47 19.5303C29.5387 19.604 29.6215 19.6631 29.7135 19.7041C29.8055 19.7451 29.9048 19.7671 30.0055 19.7689C30.1062 19.7707 30.2062 19.7522 30.2996 19.7144C30.393 19.6767 30.4778 19.6206 30.549 19.5494C30.6203 19.4781 30.6764 19.3933 30.7141 19.2999C30.7518 19.2065 30.7704 19.1065 30.7686 19.0058C30.7668 18.9051 30.7448 18.8058 30.7038 18.7138C30.6628 18.6218 30.6037 18.539 30.53 18.4703L28.53 16.4703C28.3894 16.3299 28.1988 16.251 28 16.251C27.8013 16.251 27.6106 16.3299 27.47 16.4703L25.47 18.4703C25.3296 18.6109 25.2507 18.8016 25.2507 19.0003C25.2507 19.1991 25.3296 19.3897 25.47 19.5303ZM20.75 29.1903L21.47 28.4703C21.5387 28.3966 21.6215 28.3375 21.7135 28.2965C21.8055 28.2555 21.9048 28.2335 22.0055 28.2317C22.1062 28.2299 22.2062 28.2485 22.2996 28.2862C22.393 28.3239 22.4778 28.3801 22.549 28.4513C22.6203 28.5225 22.6764 28.6073 22.7141 28.7007C22.7518 28.7941 22.7704 28.8941 22.7686 28.9948C22.7668 29.0955 22.7448 29.1949 22.7038 29.2869C22.6628 29.3789 22.6037 29.4617 22.53 29.5303L20.53 31.5303C20.3894 31.6708 20.1988 31.7497 20 31.7497C19.8013 31.7497 19.6106 31.6708 19.47 31.5303L17.47 29.5303C17.3963 29.4617 17.3372 29.3789 17.2962 29.2869C17.2552 29.1949 17.2332 29.0955 17.2314 28.9948C17.2296 28.8941 17.2482 28.7941 17.2859 28.7007C17.3236 28.6073 17.3797 28.5225 17.451 28.4513C17.5222 28.3801 17.607 28.3239 17.7004 28.2862C17.7938 28.2485 17.8938 28.2299 17.9945 28.2317C18.0952 28.2335 18.1945 28.2555 18.2865 28.2965C18.3785 28.3375 18.4613 28.3966 18.53 28.4703L19.25 29.1903V19.0003C19.25 18.8014 19.329 18.6106 19.4697 18.47C19.6103 18.3293 19.8011 18.2503 20 18.2503C20.1989 18.2503 20.3897 18.3293 20.5303 18.47C20.671 18.6106 20.75 18.8014 20.75 19.0003V29.1903Z" fill="#FF7F50"/>
</svg>
