<svg width="180" height="179" viewBox="0 0 180 179" fill="none" xmlns="http://www.w3.org/2000/svg">
<g filter="url(#filter0_d_82_6425)">
<path d="M50 65C50 42.9086 67.9086 25 90 25C112.091 25 130 42.9086 130 65C130 87.0914 112.091 105 90 105C67.9086 105 50 87.0914 50 65Z" fill="#4169E1"/>
<g clip-path="url(#clip0_82_6425)">
<path d="M89.4351 53.9663L83.6178 58.6778C82.6502 59.4591 82.4639 60.8653 83.1971 61.8689C83.9724 62.9387 85.4808 63.149 86.5204 62.3377L92.488 57.6983C92.9087 57.3738 93.5096 57.4459 93.8401 57.8665C94.1707 58.2872 94.0925 58.8882 93.6719 59.2187L92.4159 60.1923L100.769 67.8846V56.5384H100.727L100.493 56.3882L96.1298 53.5937C95.2103 53.0048 94.1346 52.6923 93.0409 52.6923C91.7308 52.6923 90.4567 53.143 89.4351 53.9663ZM90.8053 61.4423L87.6983 63.8581C85.8053 65.3365 83.0589 64.9519 81.6406 63.0048C80.3065 61.1718 80.643 58.6117 82.4038 57.1875L87.4038 53.143C86.7067 52.8485 85.9555 52.6983 85.1923 52.6983C84.0625 52.6923 82.9627 53.0288 82.0192 53.6538L77.6923 56.5384V70H79.387L84.8798 75.012C86.0577 76.0877 87.8786 76.0036 88.9543 74.8257C89.2849 74.4591 89.5072 74.0324 89.6214 73.5877L90.643 74.5252C91.8149 75.6009 93.6418 75.5228 94.7175 74.3509C94.988 74.0564 95.1863 73.7139 95.3125 73.3593C96.4784 74.1406 98.0649 73.9783 99.0445 72.9086C100.12 71.7367 100.042 69.9098 98.8702 68.8341L90.8053 61.4423ZM70.9615 56.5384C70.4327 56.5384 70 56.9711 70 57.5V70C70 71.0637 70.8594 71.923 71.9231 71.923H73.8462C74.9099 71.923 75.7692 71.0637 75.7692 70V56.5384H70.9615ZM72.8846 68.0769C73.1396 68.0769 73.3842 68.1782 73.5645 68.3585C73.7448 68.5388 73.8462 68.7834 73.8462 69.0384C73.8462 69.2934 73.7448 69.538 73.5645 69.7183C73.3842 69.8986 73.1396 70 72.8846 70C72.6296 70 72.385 69.8986 72.2047 69.7183C72.0244 69.538 71.9231 69.2934 71.9231 69.0384C71.9231 68.7834 72.0244 68.5388 72.2047 68.3585C72.385 68.1782 72.6296 68.0769 72.8846 68.0769ZM102.692 56.5384V70C102.692 71.0637 103.552 71.923 104.615 71.923H106.538C107.602 71.923 108.462 71.0637 108.462 70V57.5C108.462 56.9711 108.029 56.5384 107.5 56.5384H102.692ZM104.615 69.0384C104.615 68.7834 104.717 68.5388 104.897 68.3585C105.077 68.1782 105.322 68.0769 105.577 68.0769C105.832 68.0769 106.077 68.1782 106.257 68.3585C106.437 68.5388 106.538 68.7834 106.538 69.0384C106.538 69.2934 106.437 69.538 106.257 69.7183C106.077 69.8986 105.832 70 105.577 70C105.322 70 105.077 69.8986 104.897 69.7183C104.717 69.538 104.615 69.2934 104.615 69.0384Z" fill="white"/>
</g>
</g>
<defs>
<filter id="filter0_d_82_6425" x="0.769229" y="0.384614" width="178.462" height="178.462" filterUnits="userSpaceOnUse" color-interpolation-filters="sRGB">
<feFlood flood-opacity="0" result="BackgroundImageFix"/>
<feColorMatrix in="SourceAlpha" type="matrix" values="0 0 0 0 0 0 0 0 0 0 0 0 0 0 0 0 0 0 127 0" result="hardAlpha"/>
<feMorphology radius="12.3077" operator="erode" in="SourceAlpha" result="effect1_dropShadow_82_6425"/>
<feOffset dy="24.6154"/>
<feGaussianBlur stdDeviation="30.7692"/>
<feColorMatrix type="matrix" values="0 0 0 0 0.345098 0 0 0 0 0.360784 0 0 0 0 0.372549 0 0 0 0.16 0"/>
<feBlend mode="normal" in2="BackgroundImageFix" result="effect1_dropShadow_82_6425"/>
<feBlend mode="normal" in="SourceGraphic" in2="effect1_dropShadow_82_6425" result="shape"/>
</filter>
<clipPath id="clip0_82_6425">
<rect width="38.4615" height="30.7692" fill="white" transform="translate(70 48.8461)"/>
</clipPath>
</defs>
</svg>
