<svg width="60" height="60" viewBox="0 0 60 60" fill="none" xmlns="http://www.w3.org/2000/svg">
<rect width="60" height="60" rx="18" fill="#FFA500" fill-opacity="0.1"/>
<path d="M24 15.25C22.8938 15.25 22 16.1437 22 17.25V23.25H26V17.25C26 16.1437 25.1062 15.25 24 15.25ZM36 15.25C34.8937 15.25 34 16.1437 34 17.25V23.25H38V17.25C38 16.1437 37.1063 15.25 36 15.25ZM20 25.25C18.8937 25.25 18 26.1437 18 27.25C18 28.3562 18.8937 29.25 20 29.25V31.25C20 36.0875 23.4375 40.125 28 41.05V45.25C28 46.3562 28.8938 47.25 30 47.25C31.1062 47.25 32 46.3562 32 45.25V41.05C36.5625 40.125 40 36.0875 40 31.25V29.25C41.1063 29.25 42 28.3562 42 27.25C42 26.1437 41.1063 25.25 40 25.25H20Z" fill="#FFA500"/>
</svg>
