<svg width="48" height="48" viewBox="0 0 48 48" fill="none" xmlns="http://www.w3.org/2000/svg">
<rect width="48" height="48" rx="24" fill="#98FB98" fill-opacity="0.1"/>
<path d="M19.7495 16C19.7495 15.8011 19.6705 15.6103 19.5299 15.4697C19.3892 15.329 19.1984 15.25 18.9995 15.25C18.8006 15.25 18.6099 15.329 18.4692 15.4697C18.3285 15.6103 18.2495 15.8011 18.2495 16V17.816C17.52 17.9195 16.8443 18.2588 16.3258 18.7823C15.8072 19.3057 15.4742 19.9845 15.3775 20.715L15.2905 21.368C15.2759 21.478 15.2619 21.5887 15.2485 21.7C15.2405 21.7693 15.2472 21.8395 15.2683 21.906C15.2893 21.9725 15.3243 22.0337 15.3708 22.0857C15.4173 22.1377 15.4743 22.1792 15.538 22.2075C15.6018 22.2358 15.6708 22.2503 15.7405 22.25H32.2595C32.3293 22.2503 32.3983 22.2358 32.462 22.2075C32.5258 22.1792 32.5828 22.1377 32.6293 22.0857C32.6758 22.0337 32.7107 21.9725 32.7318 21.906C32.7529 21.8395 32.7596 21.7693 32.7515 21.7L32.7095 21.368L32.6225 20.715C32.5259 19.9845 32.1929 19.3057 31.6743 18.7823C31.1557 18.2588 30.4801 17.9195 29.7505 17.816V16C29.7505 15.8011 29.6715 15.6103 29.5309 15.4697C29.3902 15.329 29.1994 15.25 29.0005 15.25C28.8016 15.25 28.6109 15.329 28.4702 15.4697C28.3295 15.6103 28.2505 15.8011 28.2505 16V17.668C25.4228 17.4166 22.5783 17.4166 19.7505 17.668L19.7495 16ZM32.9445 24.226C32.9399 24.0978 32.8855 23.9764 32.7929 23.8876C32.7003 23.7987 32.5768 23.7494 32.4485 23.75H15.5505C15.4222 23.7494 15.2987 23.7987 15.2062 23.8876C15.1136 23.9764 15.0592 24.0978 15.0545 24.226C14.9954 26.0357 15.1059 27.8469 15.3845 29.636C15.4872 30.2951 15.806 30.9015 16.2907 31.3598C16.7754 31.8181 17.3987 32.1024 18.0625 32.168L19.2555 32.286C22.4105 32.596 25.5885 32.596 28.7435 32.286L29.9365 32.168C30.6004 32.1024 31.2236 31.8181 31.7084 31.3598C32.1931 30.9015 32.5118 30.2951 32.6145 29.636C32.8932 27.8469 33.0037 26.0357 32.9445 24.226Z" fill="#08CE08"/>
</svg>
