<svg width="325" height="57" viewBox="0 0 325 57" fill="none" xmlns="http://www.w3.org/2000/svg">
<g filter="url(#filter0_i_434_6007)">
<path d="M239.5 0C251.355 0 261.519 7.23925 265.814 17.5381H270.186C274.481 7.23925 284.645 0 296.5 0C312.24 0 325 12.7599 325 28.5C325 44.2401 312.24 57 296.5 57C285.505 57 275.966 50.7731 271.213 41.6543H264.787C260.034 50.7731 250.495 57 239.5 57H28.5C12.7599 57 0 44.2401 0 28.5C0 12.7599 12.7599 9.66391e-08 28.5 0H239.5Z" fill="#FF5212"/>
</g>
<path d="M57.5863 34.192C56.5196 34.192 55.5916 33.9573 54.8023 33.488C54.013 33.008 53.3996 32.3413 52.9623 31.488C52.525 30.624 52.3063 29.6213 52.3063 28.48C52.3063 27.328 52.5303 26.3147 52.9783 25.44C53.4263 24.5547 54.0716 23.8613 54.9143 23.36C55.757 22.8587 56.765 22.608 57.9383 22.608C59.2503 22.608 60.3383 22.9227 61.2023 23.552C62.077 24.1813 62.6423 25.056 62.8983 26.176H60.4823C60.3223 25.6853 60.0236 25.3013 59.5863 25.024C59.1596 24.736 58.605 24.592 57.9223 24.592C57.197 24.592 56.5783 24.752 56.0663 25.072C55.5543 25.392 55.165 25.84 54.8983 26.416C54.6316 26.992 54.4983 27.68 54.4983 28.48C54.4983 29.2907 54.6316 29.9787 54.8983 30.544C55.165 31.1093 55.5436 31.5413 56.0343 31.84C56.5356 32.128 57.1223 32.272 57.7943 32.272C58.7756 32.272 59.517 32.0107 60.0183 31.488C60.5303 30.9547 60.8343 30.2667 60.9303 29.424H58.1783V27.808H63.1063V34H61.1063L60.9463 32.576C60.7116 32.928 60.4343 33.2267 60.1143 33.472C59.805 33.7067 59.4423 33.8827 59.0263 34C58.6103 34.128 58.1303 34.192 57.5863 34.192ZM68.9514 34.192C68.1408 34.192 67.4208 34.0213 66.7914 33.68C66.1728 33.328 65.6874 32.8427 65.3354 32.224C64.9941 31.5947 64.8234 30.8693 64.8234 30.048C64.8234 29.2053 64.9941 28.464 65.3354 27.824C65.6874 27.1733 66.1728 26.6667 66.7914 26.304C67.4101 25.9307 68.1301 25.744 68.9514 25.744C69.7514 25.744 70.4501 25.92 71.0474 26.272C71.6448 26.624 72.1088 27.0987 72.4394 27.696C72.7701 28.2933 72.9354 28.9707 72.9354 29.728C72.9354 29.8347 72.9354 29.9573 72.9354 30.096C72.9354 30.224 72.9248 30.3573 72.9034 30.496L66.3594 30.496V29.184H70.7594C70.7274 28.6613 70.5408 28.2507 70.1994 27.952C69.8688 27.6533 69.4528 27.504 68.9514 27.504C68.5888 27.504 68.2528 27.5893 67.9434 27.76C67.6341 27.92 67.3888 28.1707 67.2074 28.512C67.0368 28.8533 66.9514 29.2853 66.9514 29.808V30.272C66.9514 30.7093 67.0314 31.0933 67.1914 31.424C67.3621 31.744 67.5968 31.9947 67.8954 32.176C68.1941 32.3467 68.5408 32.432 68.9354 32.432C69.3301 32.432 69.6554 32.3467 69.9114 32.176C70.1781 32.0053 70.3754 31.7867 70.5034 31.52L72.7114 31.52C72.5621 32.0213 72.3114 32.4747 71.9594 32.88C71.6074 33.2853 71.1754 33.6053 70.6634 33.84C70.1514 34.0747 69.5808 34.192 68.9514 34.192ZM78.2271 34C77.6617 34 77.1657 33.9147 76.7391 33.744C76.3231 33.5627 75.9977 33.2693 75.7631 32.864C75.5284 32.448 75.4111 31.8827 75.4111 31.168V27.744H74.0351V25.936H75.4111L75.6511 23.744H77.5711V25.936H79.6991V27.744H77.5711V31.2C77.5711 31.5627 77.6511 31.8133 77.8111 31.952C77.9711 32.0907 78.2431 32.16 78.6271 32.16H79.6831V34H78.2271ZM89.1866 34.192C88.3759 34.192 87.6506 34.0533 87.0106 33.776C86.3812 33.4987 85.8799 33.0933 85.5066 32.56C85.1439 32.0267 84.9572 31.3813 84.9466 30.624L87.2346 30.624C87.2452 30.9547 87.3306 31.2533 87.4906 31.52C87.6506 31.7867 87.8692 32 88.1466 32.16C88.4346 32.3093 88.7759 32.384 89.1706 32.384C89.5119 32.384 89.8052 32.3307 90.0506 32.224C90.3066 32.1067 90.5039 31.9467 90.6426 31.744C90.7812 31.5413 90.8506 31.3013 90.8506 31.024C90.8506 30.704 90.7706 30.4373 90.6106 30.224C90.4612 30.0107 90.2479 29.8293 89.9706 29.68C89.7039 29.5307 89.3892 29.3973 89.0266 29.28C88.6746 29.152 88.3012 29.0187 87.9066 28.88C87.0212 28.592 86.3439 28.208 85.8746 27.728C85.4159 27.248 85.1866 26.6133 85.1866 25.824C85.1866 25.152 85.3466 24.576 85.6666 24.096C85.9972 23.616 86.4506 23.248 87.0266 22.992C87.6026 22.736 88.2586 22.608 88.9946 22.608C89.7519 22.608 90.4132 22.7413 90.9786 23.008C91.5546 23.264 92.0079 23.6373 92.3386 24.128C92.6799 24.6187 92.8559 25.1947 92.8666 25.856H90.5626C90.5519 25.6107 90.4772 25.3813 90.3386 25.168C90.2106 24.944 90.0292 24.768 89.7946 24.64C89.5599 24.5013 89.2826 24.432 88.9626 24.432C88.6852 24.4213 88.4292 24.464 88.1946 24.56C87.9706 24.656 87.7892 24.8 87.6506 24.992C87.5226 25.1733 87.4586 25.4027 87.4586 25.68C87.4586 25.9467 87.5226 26.1707 87.6506 26.352C87.7892 26.5333 87.9759 26.6933 88.2106 26.832C88.4452 26.96 88.7226 27.0827 89.0426 27.2C89.3626 27.3067 89.7092 27.4187 90.0826 27.536C90.6372 27.728 91.1492 27.9573 91.6186 28.224C92.0879 28.48 92.4612 28.816 92.7386 29.232C93.0159 29.648 93.1546 30.1973 93.1546 30.88C93.1546 31.4667 92.9999 32.0107 92.6906 32.512C92.3812 33.0133 91.9332 33.4187 91.3466 33.728C90.7706 34.0373 90.0506 34.192 89.1866 34.192ZM98.5708 34C98.0055 34 97.5095 33.9147 97.0828 33.744C96.6668 33.5627 96.3415 33.2693 96.1068 32.864C95.8721 32.448 95.7548 31.8827 95.7548 31.168V27.744H94.3788V25.936H95.7548L95.9948 23.744H97.9148V25.936H100.043V27.744H97.9148V31.2C97.9148 31.5627 97.9948 31.8133 98.1548 31.952C98.3148 32.0907 98.5868 32.16 98.9708 32.16H100.027V34H98.5708ZM104.581 34.192C103.909 34.192 103.354 34.0853 102.917 33.872C102.479 33.648 102.154 33.3547 101.941 32.992C101.738 32.6187 101.637 32.208 101.637 31.76C101.637 31.2693 101.759 30.8373 102.005 30.464C102.261 30.0907 102.639 29.7973 103.141 29.584C103.653 29.3707 104.293 29.264 105.061 29.264H107.061C107.061 28.8693 107.007 28.544 106.901 28.288C106.794 28.0213 106.629 27.824 106.405 27.696C106.181 27.568 105.882 27.504 105.509 27.504C105.103 27.504 104.757 27.5947 104.469 27.776C104.191 27.9467 104.021 28.2133 103.957 28.576H101.861C101.914 28 102.101 27.504 102.421 27.088C102.751 26.6613 103.183 26.3307 103.717 26.096C104.261 25.8613 104.863 25.744 105.525 25.744C106.282 25.744 106.938 25.872 107.493 26.128C108.047 26.384 108.474 26.752 108.773 27.232C109.071 27.712 109.221 28.304 109.221 29.008V34H107.397L107.157 32.768C107.039 32.9813 106.901 33.1733 106.741 33.344C106.581 33.5147 106.394 33.664 106.181 33.792C105.967 33.92 105.727 34.016 105.461 34.08C105.194 34.1547 104.901 34.192 104.581 34.192ZM105.093 32.528C105.37 32.528 105.615 32.48 105.829 32.384C106.053 32.2773 106.245 32.1387 106.405 31.968C106.565 31.7867 106.687 31.584 106.773 31.36C106.869 31.1253 106.933 30.8747 106.965 30.608V30.592H105.317C104.986 30.592 104.714 30.6347 104.501 30.72C104.298 30.7947 104.149 30.9067 104.053 31.056C103.957 31.2053 103.909 31.376 103.909 31.568C103.909 31.7813 103.957 31.9573 104.053 32.096C104.149 32.2347 104.287 32.3413 104.469 32.416C104.65 32.4907 104.858 32.528 105.093 32.528ZM111.236 34V25.936H113.156L113.364 27.424C113.556 27.072 113.796 26.7733 114.084 26.528C114.382 26.2827 114.718 26.0907 115.092 25.952C115.476 25.8133 115.897 25.744 116.356 25.744V28.032H115.62C115.3 28.032 115.001 28.0693 114.724 28.144C114.457 28.2187 114.222 28.3413 114.02 28.512C113.817 28.672 113.662 28.896 113.556 29.184C113.449 29.472 113.396 29.8347 113.396 30.272V34H111.236ZM121.415 34C120.849 34 120.353 33.9147 119.927 33.744C119.511 33.5627 119.185 33.2693 118.951 32.864C118.716 32.448 118.599 31.8827 118.599 31.168V27.744H117.223V25.936H118.599L118.839 23.744H120.759V25.936H122.887V27.744H120.759V31.2C120.759 31.5627 120.839 31.8133 120.999 31.952C121.159 32.0907 121.431 32.16 121.815 32.16H122.871V34H121.415ZM128.373 34.192C127.563 34.192 126.843 34.0213 126.213 33.68C125.595 33.328 125.109 32.8427 124.757 32.224C124.416 31.5947 124.245 30.8693 124.245 30.048C124.245 29.2053 124.416 28.464 124.757 27.824C125.109 27.1733 125.595 26.6667 126.213 26.304C126.832 25.9307 127.552 25.744 128.373 25.744C129.173 25.744 129.872 25.92 130.469 26.272C131.067 26.624 131.531 27.0987 131.861 27.696C132.192 28.2933 132.357 28.9707 132.357 29.728C132.357 29.8347 132.357 29.9573 132.357 30.096C132.357 30.224 132.347 30.3573 132.325 30.496L125.781 30.496V29.184L130.181 29.184C130.149 28.6613 129.963 28.2507 129.621 27.952C129.291 27.6533 128.875 27.504 128.373 27.504C128.011 27.504 127.675 27.5893 127.365 27.76C127.056 27.92 126.811 28.1707 126.629 28.512C126.459 28.8533 126.373 29.2853 126.373 29.808V30.272C126.373 30.7093 126.453 31.0933 126.613 31.424C126.784 31.744 127.019 31.9947 127.317 32.176C127.616 32.3467 127.963 32.432 128.357 32.432C128.752 32.432 129.077 32.3467 129.333 32.176C129.6 32.0053 129.797 31.7867 129.925 31.52H132.133C131.984 32.0213 131.733 32.4747 131.381 32.88C131.029 33.2853 130.597 33.6053 130.085 33.84C129.573 34.0747 129.003 34.192 128.373 34.192ZM137.71 34.192C136.974 34.192 136.313 34.0107 135.726 33.648C135.15 33.2853 134.697 32.784 134.366 32.144C134.036 31.504 133.87 30.784 133.87 29.984C133.87 29.1627 134.036 28.4373 134.366 27.808C134.708 27.168 135.172 26.6667 135.758 26.304C136.356 25.9307 137.022 25.744 137.758 25.744C138.334 25.744 138.841 25.8507 139.278 26.064C139.716 26.2773 140.068 26.5813 140.334 26.976V22.48H142.494V34H140.574L140.334 32.896C140.174 33.12 139.972 33.3333 139.726 33.536C139.492 33.7387 139.209 33.8987 138.878 34.016C138.548 34.1333 138.158 34.192 137.71 34.192ZM138.222 32.304C138.649 32.304 139.022 32.208 139.342 32.016C139.673 31.8133 139.929 31.536 140.11 31.184C140.292 30.832 140.382 30.4267 140.382 29.968C140.382 29.5093 140.292 29.104 140.11 28.752C139.929 28.4 139.673 28.128 139.342 27.936C139.022 27.7333 138.649 27.632 138.222 27.632C137.817 27.632 137.449 27.7333 137.118 27.936C136.788 28.128 136.526 28.4 136.334 28.752C136.153 29.104 136.062 29.504 136.062 29.952C136.062 30.4213 136.153 30.832 136.334 31.184C136.526 31.536 136.782 31.8133 137.102 32.016C137.433 32.208 137.806 32.304 138.222 32.304ZM148.424 34V22.8H155.72V24.544H150.584V27.536H154.696V29.232H150.584V34H148.424ZM160.653 34.192C159.885 34.192 159.192 34.016 158.573 33.664C157.965 33.3013 157.48 32.8053 157.117 32.176C156.765 31.536 156.589 30.8053 156.589 29.984C156.589 29.1413 156.765 28.4053 157.117 27.776C157.48 27.136 157.97 26.64 158.589 26.288C159.208 25.9253 159.901 25.744 160.669 25.744C161.448 25.744 162.141 25.9253 162.749 26.288C163.368 26.64 163.853 27.136 164.205 27.776C164.568 28.4053 164.749 29.136 164.749 29.968C164.749 30.8 164.568 31.536 164.205 32.176C163.853 32.8053 163.368 33.3013 162.749 33.664C162.13 34.016 161.432 34.192 160.653 34.192ZM160.653 32.32C161.016 32.32 161.336 32.2347 161.613 32.064C161.901 31.8933 162.125 31.632 162.285 31.28C162.456 30.928 162.541 30.4907 162.541 29.968C162.541 29.4453 162.456 29.0133 162.285 28.672C162.125 28.32 161.901 28.0587 161.613 27.888C161.336 27.7067 161.021 27.616 160.669 27.616C160.328 27.616 160.013 27.7067 159.725 27.888C159.437 28.0587 159.208 28.32 159.037 28.672C158.877 29.0133 158.797 29.4453 158.797 29.968C158.797 30.4907 158.877 30.928 159.037 31.28C159.208 31.632 159.432 31.8933 159.709 32.064C159.997 32.2347 160.312 32.32 160.653 32.32ZM166.611 34V25.936H168.531L168.739 27.424C168.931 27.072 169.171 26.7733 169.459 26.528C169.757 26.2827 170.093 26.0907 170.467 25.952C170.851 25.8133 171.272 25.744 171.731 25.744V28.032H170.995C170.675 28.032 170.376 28.0693 170.099 28.144C169.832 28.2187 169.597 28.3413 169.395 28.512C169.192 28.672 169.037 28.896 168.931 29.184C168.824 29.472 168.771 29.8347 168.771 30.272V34H166.611ZM176.971 34V22.8L184.267 22.8V24.544H179.131V27.536L183.243 27.536V29.232L179.131 29.232V34H176.971ZM185.814 34V25.936H187.734L187.942 27.424C188.134 27.072 188.374 26.7733 188.662 26.528C188.96 26.2827 189.296 26.0907 189.67 25.952C190.054 25.8133 190.475 25.744 190.934 25.744V28.032H190.198C189.878 28.032 189.579 28.0693 189.302 28.144C189.035 28.2187 188.8 28.3413 188.598 28.512C188.395 28.672 188.24 28.896 188.134 29.184C188.027 29.472 187.974 29.8347 187.974 30.272V34H185.814ZM196.108 34.192C195.297 34.192 194.577 34.0213 193.948 33.68C193.329 33.328 192.844 32.8427 192.492 32.224C192.15 31.5947 191.98 30.8693 191.98 30.048C191.98 29.2053 192.15 28.464 192.492 27.824C192.844 27.1733 193.329 26.6667 193.948 26.304C194.566 25.9307 195.286 25.744 196.108 25.744C196.908 25.744 197.606 25.92 198.204 26.272C198.801 26.624 199.265 27.0987 199.596 27.696C199.926 28.2933 200.092 28.9707 200.092 29.728C200.092 29.8347 200.092 29.9573 200.092 30.096C200.092 30.224 200.081 30.3573 200.06 30.496L193.516 30.496V29.184L197.916 29.184C197.884 28.6613 197.697 28.2507 197.356 27.952C197.025 27.6533 196.609 27.504 196.108 27.504C195.745 27.504 195.409 27.5893 195.1 27.76C194.79 27.92 194.545 28.1707 194.364 28.512C194.193 28.8533 194.108 29.2853 194.108 29.808V30.272C194.108 30.7093 194.188 31.0933 194.348 31.424C194.518 31.744 194.753 31.9947 195.052 32.176C195.35 32.3467 195.697 32.432 196.092 32.432C196.486 32.432 196.812 32.3467 197.068 32.176C197.334 32.0053 197.532 31.7867 197.66 31.52H199.868C199.718 32.0213 199.468 32.4747 199.116 32.88C198.764 33.2853 198.332 33.6053 197.82 33.84C197.308 34.0747 196.737 34.192 196.108 34.192ZM205.733 34.192C204.922 34.192 204.202 34.0213 203.573 33.68C202.954 33.328 202.469 32.8427 202.117 32.224C201.775 31.5947 201.605 30.8693 201.605 30.048C201.605 29.2053 201.775 28.464 202.117 27.824C202.469 27.1733 202.954 26.6667 203.573 26.304C204.191 25.9307 204.911 25.744 205.733 25.744C206.533 25.744 207.231 25.92 207.829 26.272C208.426 26.624 208.89 27.0987 209.221 27.696C209.551 28.2933 209.717 28.9707 209.717 29.728C209.717 29.8347 209.717 29.9573 209.717 30.096C209.717 30.224 209.706 30.3573 209.685 30.496H203.141V29.184H207.541C207.509 28.6613 207.322 28.2507 206.981 27.952C206.65 27.6533 206.234 27.504 205.733 27.504C205.37 27.504 205.034 27.5893 204.725 27.76C204.415 27.92 204.17 28.1707 203.989 28.512C203.818 28.8533 203.733 29.2853 203.733 29.808V30.272C203.733 30.7093 203.813 31.0933 203.973 31.424C204.143 31.744 204.378 31.9947 204.677 32.176C204.975 32.3467 205.322 32.432 205.717 32.432C206.111 32.432 206.437 32.3467 206.693 32.176C206.959 32.0053 207.157 31.7867 207.285 31.52H209.493C209.343 32.0213 209.093 32.4747 208.741 32.88C208.389 33.2853 207.957 33.6053 207.445 33.84C206.933 34.0747 206.362 34.192 205.733 34.192Z" fill="white"/>
<path d="M295.74 23.8707C295.61 23.8406 295.486 23.7844 295.377 23.7055C295.269 23.6266 295.177 23.5266 295.108 23.4115C295.039 23.2964 294.993 23.1685 294.975 23.0356C294.956 22.9026 294.964 22.7672 294.999 22.6375C295.034 22.5078 295.094 22.3864 295.177 22.2806C295.26 22.1747 295.363 22.0867 295.48 22.0216C295.598 21.9565 295.727 21.9157 295.861 21.9017C295.994 21.8877 296.129 21.9008 296.258 21.9401L303.543 23.8922C303.799 23.961 304.017 24.1285 304.15 24.358C304.282 24.5875 304.318 24.8602 304.25 25.1162L302.298 32.4017C302.268 32.5325 302.211 32.656 302.132 32.7647C302.054 32.8733 301.954 32.965 301.839 33.0342C301.723 33.1034 301.596 33.1486 301.463 33.1674C301.33 33.1861 301.194 33.1778 301.064 33.143C300.935 33.1083 300.813 33.0477 300.708 32.965C300.602 32.8824 300.514 32.7792 300.449 32.6617C300.384 32.5443 300.343 32.4149 300.329 32.2813C300.315 32.1478 300.328 32.0128 300.367 31.8844L301.695 26.9302L290.506 33.3902C290.276 33.5229 290.003 33.5588 289.747 33.4901C289.491 33.4215 289.272 33.2539 289.139 33.0242C289.007 32.7945 288.971 32.5216 289.04 32.2654C289.108 32.0092 289.276 31.7908 289.506 31.6582L300.695 25.1982L295.74 23.8707Z" fill="white"/>
<defs>
<filter id="filter0_i_434_6007" x="0" y="0" width="325" height="63" filterUnits="userSpaceOnUse" color-interpolation-filters="sRGB">
<feFlood flood-opacity="0" result="BackgroundImageFix"/>
<feBlend mode="normal" in="SourceGraphic" in2="BackgroundImageFix" result="shape"/>
<feColorMatrix in="SourceAlpha" type="matrix" values="0 0 0 0 0 0 0 0 0 0 0 0 0 0 0 0 0 0 127 0" result="hardAlpha"/>
<feOffset dy="6"/>
<feGaussianBlur stdDeviation="10"/>
<feComposite in2="hardAlpha" operator="arithmetic" k2="-1" k3="1"/>
<feColorMatrix type="matrix" values="0 0 0 0 1 0 0 0 0 1 0 0 0 0 1 0 0 0 0.7 0"/>
<feBlend mode="normal" in2="shape" result="effect1_innerShadow_434_6007"/>
</filter>
</defs>
</svg>
