<svg width="49" height="48" viewBox="0 0 49 48" fill="none" xmlns="http://www.w3.org/2000/svg">
<rect x="0.5" width="48" height="48" rx="24" fill="#98FB98" fill-opacity="0.1"/>
<path d="M25.012 14.634C24.6787 14.5315 24.3223 14.5315 23.989 14.634L21.003 15.552C19.4689 16.024 18.0119 16.7173 16.678 17.61C15.83 18.177 16.232 19.5 17.252 19.5H31.748C32.768 19.5 33.17 18.177 32.323 17.61C30.9888 16.7172 29.5314 16.0239 27.997 15.552L25.012 14.634ZM16.75 33C16.75 32.8011 16.829 32.6103 16.9697 32.4697C17.1103 32.329 17.3011 32.25 17.5 32.25H31.5C31.6989 32.25 31.8897 32.329 32.0303 32.4697C32.171 32.6103 32.25 32.8011 32.25 33C32.25 33.1989 32.171 33.3897 32.0303 33.5303C31.8897 33.671 31.6989 33.75 31.5 33.75H17.5C17.3011 33.75 17.1103 33.671 16.9697 33.5303C16.829 33.3897 16.75 33.1989 16.75 33ZM18.75 29C18.75 29.1989 18.829 29.3897 18.9697 29.5303C19.1103 29.671 19.3011 29.75 19.5 29.75C19.6989 29.75 19.8897 29.671 20.0303 29.5303C20.171 29.3897 20.25 29.1989 20.25 29V23C20.25 22.8011 20.171 22.6103 20.0303 22.4697C19.8897 22.329 19.6989 22.25 19.5 22.25C19.3011 22.25 19.1103 22.329 18.9697 22.4697C18.829 22.6103 18.75 22.8011 18.75 23V29ZM24.5 29.75C24.3011 29.75 24.1103 29.671 23.9697 29.5303C23.829 29.3897 23.75 29.1989 23.75 29V23C23.75 22.8011 23.829 22.6103 23.9697 22.4697C24.1103 22.329 24.3011 22.25 24.5 22.25C24.6989 22.25 24.8897 22.329 25.0303 22.4697C25.171 22.6103 25.25 22.8011 25.25 23V29C25.25 29.1989 25.171 29.3897 25.0303 29.5303C24.8897 29.671 24.6989 29.75 24.5 29.75ZM28.75 29C28.75 29.1989 28.829 29.3897 28.9697 29.5303C29.1103 29.671 29.3011 29.75 29.5 29.75C29.6989 29.75 29.8897 29.671 30.0303 29.5303C30.171 29.3897 30.25 29.1989 30.25 29V23C30.25 22.8011 30.171 22.6103 30.0303 22.4697C29.8897 22.329 29.6989 22.25 29.5 22.25C29.3011 22.25 29.1103 22.329 28.9697 22.4697C28.829 22.6103 28.75 22.8011 28.75 23V29Z" fill="#08CE08"/>
</svg>
