<svg width="49" height="48" viewBox="0 0 49 48" fill="none" xmlns="http://www.w3.org/2000/svg">
<rect x="0.5" width="48" height="48" rx="24" fill="#98FB98" fill-opacity="0.1"/>
<path d="M19.2028 17.4242C19.3524 17.2636 19.4338 17.0513 19.4299 16.8319C19.4261 16.6125 19.3372 16.4032 19.182 16.248C19.0269 16.0929 18.8176 16.004 18.5982 16.0001C18.3788 15.9963 18.1665 16.0777 18.0059 16.2273L15.7477 18.4855C15.5891 18.6443 15.5 18.8596 15.5 19.084C15.5 19.3084 15.5891 19.5236 15.7477 19.6824L18.0059 21.9407C18.0834 22.0239 18.1769 22.0906 18.2808 22.1369C18.3847 22.1832 18.4968 22.2081 18.6105 22.2101C18.7242 22.2121 18.8372 22.1912 18.9426 22.1486C19.0481 22.106 19.1439 22.0426 19.2243 21.9622C19.3047 21.8818 19.3681 21.786 19.4107 21.6805C19.4533 21.5751 19.4742 21.4621 19.4722 21.3484C19.4702 21.2347 19.4453 21.1226 19.399 21.0187C19.3527 20.9148 19.286 20.8213 19.2028 20.7438L18.3898 19.9308H29.8956C30.1202 19.9308 30.3356 19.8416 30.4945 19.6828C30.6533 19.524 30.7425 19.3086 30.7425 19.084C30.7425 18.8594 30.6533 18.644 30.4945 18.4852C30.3356 18.3264 30.1202 18.2371 29.8956 18.2371H18.3898L19.2028 17.4242ZM29.2972 25.2603C29.1386 25.4191 29.0495 25.6343 29.0495 25.8588C29.0495 26.0832 29.1386 26.2984 29.2972 26.4572L30.1102 27.2702H18.6044C18.3798 27.2702 18.1644 27.3594 18.0055 27.5182C17.8467 27.677 17.7575 27.8924 17.7575 28.117C17.7575 28.3416 17.8467 28.557 18.0055 28.7158C18.1644 28.8746 18.3798 28.9639 18.6044 28.9639H30.1102L29.2972 29.7768C29.214 29.8544 29.1473 29.9478 29.101 30.0517C29.0547 30.1556 29.0298 30.2677 29.0278 30.3814C29.0258 30.4952 29.0467 30.6081 29.0893 30.7135C29.1319 30.819 29.1953 30.9148 29.2757 30.9952C29.3561 31.0756 29.4519 31.139 29.5574 31.1816C29.6628 31.2242 29.7758 31.2451 29.8895 31.2431C30.0032 31.2411 30.1153 31.2162 30.2192 31.1699C30.3231 31.1236 30.4166 31.0569 30.4941 30.9737L32.7523 28.7154C32.9109 28.5567 33 28.3414 33 28.117C33 27.8926 32.9109 27.6774 32.7523 27.5186L30.4941 25.2603C30.3353 25.1017 30.1201 25.0126 29.8956 25.0126C29.6712 25.0126 29.456 25.1017 29.2972 25.2603Z" fill="#08CE08"/>
</svg>
