<svg width="48" height="48" viewBox="0 0 48 48" fill="none" xmlns="http://www.w3.org/2000/svg">
<rect width="48" height="48" rx="24" fill="#FF6B6B" fill-opacity="0.1"/>
<path d="M29.276 17.4702C29.711 17.6302 30 18.0452 30 18.5092V29.4902C30 29.9542 29.71 30.3692 29.276 30.5292C28.4523 30.8318 27.5477 30.8318 26.724 30.5292C26.5119 30.4505 26.329 30.3089 26.1996 30.1234C26.0702 29.9379 26.0006 29.7173 26 29.4911V18.5102C26 18.0462 26.29 17.6312 26.724 17.4702C27.5477 17.1675 28.4523 17.1675 29.276 17.4702ZM21.276 17.4702C21.711 17.6302 22 18.0452 22 18.5092V29.4902C22 29.9542 21.71 30.3692 21.276 30.5292C20.4523 30.8318 19.5477 30.8318 18.724 30.5292C18.5119 30.4505 18.329 30.3089 18.1996 30.1234C18.0702 29.9379 18.0006 29.7173 18 29.4911V18.5102C18 18.0462 18.29 17.6312 18.724 17.4702C19.5477 17.1675 20.4523 17.1675 21.276 17.4702Z" fill="#FA0000"/>
</svg>
