<svg width="48" height="48" viewBox="0 0 48 48" fill="none" xmlns="http://www.w3.org/2000/svg">
<rect width="48" height="48" rx="24" fill="#4CAF50" fill-opacity="0.1"/>
<path d="M24.5118 14.634C24.1785 14.5315 23.8221 14.5315 23.4888 14.634L20.5028 15.552C18.9687 16.024 17.5117 16.7173 16.1778 17.61C15.3298 18.177 15.7318 19.5 16.7518 19.5H31.2478C32.2678 19.5 32.6698 18.177 31.8228 17.61C30.4886 16.7172 29.0312 16.0239 27.4968 15.552L24.5118 14.634ZM16.2498 33C16.2498 32.8011 16.3288 32.6103 16.4694 32.4697C16.6101 32.329 16.8008 32.25 16.9998 32.25H30.9998C31.1987 32.25 31.3894 32.329 31.5301 32.4697C31.6707 32.6103 31.7498 32.8011 31.7498 33C31.7498 33.1989 31.6707 33.3897 31.5301 33.5303C31.3894 33.671 31.1987 33.75 30.9998 33.75H16.9998C16.8008 33.75 16.6101 33.671 16.4694 33.5303C16.3288 33.3897 16.2498 33.1989 16.2498 33ZM18.2498 29C18.2498 29.1989 18.3288 29.3897 18.4694 29.5303C18.6101 29.671 18.8008 29.75 18.9998 29.75C19.1987 29.75 19.3894 29.671 19.5301 29.5303C19.6707 29.3897 19.7498 29.1989 19.7498 29V23C19.7498 22.8011 19.6707 22.6103 19.5301 22.4697C19.3894 22.329 19.1987 22.25 18.9998 22.25C18.8008 22.25 18.6101 22.329 18.4694 22.4697C18.3288 22.6103 18.2498 22.8011 18.2498 23V29ZM23.9998 29.75C23.8008 29.75 23.6101 29.671 23.4694 29.5303C23.3288 29.3897 23.2498 29.1989 23.2498 29V23C23.2498 22.8011 23.3288 22.6103 23.4694 22.4697C23.6101 22.329 23.8008 22.25 23.9998 22.25C24.1987 22.25 24.3894 22.329 24.5301 22.4697C24.6707 22.6103 24.7498 22.8011 24.7498 23V29C24.7498 29.1989 24.6707 29.3897 24.5301 29.5303C24.3894 29.671 24.1987 29.75 23.9998 29.75ZM28.2498 29C28.2498 29.1989 28.3288 29.3897 28.4694 29.5303C28.6101 29.671 28.8008 29.75 28.9998 29.75C29.1987 29.75 29.3894 29.671 29.5301 29.5303C29.6707 29.3897 29.7498 29.1989 29.7498 29V23C29.7498 22.8011 29.6707 22.6103 29.5301 22.4697C29.3894 22.329 29.1987 22.25 28.9998 22.25C28.8008 22.25 28.6101 22.329 28.4694 22.4697C28.3288 22.6103 28.2498 22.8011 28.2498 23V29Z" fill="#4CAF50"/>
</svg>
