<svg width="60" height="60" viewBox="0 0 60 60" fill="none" xmlns="http://www.w3.org/2000/svg">
<rect width="60" height="60" rx="18" fill="#98FB98" fill-opacity="0.1"/>
<path fill-rule="evenodd" clip-rule="evenodd" d="M43.515 28.008L43.5195 33.4425C43.4805 33.9605 43.431 34.4775 43.371 34.9935C43.3179 35.4188 43.1228 35.8138 42.8174 36.1146C42.512 36.4153 42.1141 36.6043 41.688 36.651C38.928 36.96 36.072 36.96 33.312 36.651C32.8859 36.6043 32.488 36.4153 32.1826 36.1146C31.8772 35.8138 31.6822 35.4188 31.629 34.9935C31.2988 32.1751 31.2988 29.3278 31.629 26.5095C31.6822 26.0841 31.8772 25.6891 32.1826 25.3884C32.488 25.0876 32.8859 24.8986 33.312 24.852C36.0955 24.5441 38.9045 24.5441 41.688 24.852C42.5685 24.9495 43.2705 25.647 43.371 26.5095C43.429 27.0085 43.477 27.5085 43.515 28.0095M37.5 28.5015C36.9033 28.5015 36.331 28.7385 35.909 29.1605C35.4871 29.5824 35.25 30.1547 35.25 30.7515C35.25 31.3482 35.4871 31.9205 35.909 32.3425C36.331 32.7644 36.9033 33.0015 37.5 33.0015C38.0968 33.0015 38.6691 32.7644 39.091 32.3425C39.513 31.9205 39.75 31.3482 39.75 30.7515C39.75 30.1547 39.513 29.5824 39.091 29.1605C38.6691 28.7385 38.0968 28.5015 37.5 28.5015Z" fill="#08CE08"/>
<path d="M42.6058 21.8101C42.8383 22.2136 42.4003 22.6651 41.9368 22.6141C38.9877 22.2891 36.0119 22.2891 33.0628 22.6141C32.1311 22.717 31.2616 23.132 30.5955 23.7915C29.9294 24.4511 29.5059 25.3165 29.3938 26.2471C29.046 29.239 29.046 32.2612 29.3938 35.2531C29.5059 36.1838 29.9294 37.0492 30.5955 37.7087C31.2616 38.3682 32.1311 38.7832 33.0628 38.8861C36.0119 39.2111 38.9877 39.2111 41.9368 38.8861C42.4033 38.8336 42.8458 39.2896 42.6103 39.6961C42.0214 40.7119 41.2009 41.5742 40.2156 42.2129C39.2303 42.8515 38.108 43.2483 36.9403 43.3711L35.9623 43.4731C30.996 43.9948 25.9869 43.9601 21.0283 43.3696L20.3803 43.2931C19.0804 43.1387 17.8689 42.556 16.9368 41.6369C16.0047 40.7178 15.405 39.5147 15.2323 38.2171C14.5703 33.2611 14.5703 28.2391 15.2323 23.2831C15.405 21.9855 16.0047 20.7824 16.9368 19.8633C17.8689 18.9442 19.0804 18.3615 20.3803 18.2071L21.0283 18.1306C25.9869 17.5401 30.996 17.5054 35.9623 18.0271L36.9403 18.1306C38.108 18.2534 39.2301 18.6507 40.2148 19.2903C41.1994 19.9298 42.0188 20.7933 42.6058 21.8101Z" fill="#08CE08"/>
</svg>
