<svg width="48" height="48" viewBox="0 0 48 48" fill="none" xmlns="http://www.w3.org/2000/svg">
<rect width="48" height="48" rx="24" fill="#FFA500" fill-opacity="0.1"/>
<path fill-rule="evenodd" clip-rule="evenodd" d="M15.5 24C15.5 21.7457 16.3955 19.5837 17.9896 17.9896C19.5837 16.3955 21.7457 15.5 24 15.5C26.2543 15.5 28.4163 16.3955 30.0104 17.9896C31.6045 19.5837 32.5 21.7457 32.5 24C32.5 26.2543 31.6045 28.4163 30.0104 30.0104C28.4163 31.6045 26.2543 32.5 24 32.5C21.7457 32.5 19.5837 31.6045 17.9896 30.0104C16.3955 28.4163 15.5 26.2543 15.5 24ZM24.75 19C24.75 18.8011 24.671 18.6103 24.5303 18.4697C24.3897 18.329 24.1989 18.25 24 18.25C23.8011 18.25 23.6103 18.329 23.4697 18.4697C23.329 18.6103 23.25 18.8011 23.25 19V24C23.2499 24.1272 23.2822 24.2522 23.3438 24.3635C23.4054 24.4747 23.4942 24.5685 23.602 24.636L26.602 26.511C26.7707 26.6166 26.9744 26.6508 27.1683 26.6061C27.2643 26.584 27.355 26.5433 27.4353 26.4861C27.5155 26.4289 27.5837 26.3565 27.636 26.273C27.6883 26.1895 27.7236 26.0965 27.7399 25.9993C27.7562 25.9022 27.7532 25.8027 27.7311 25.7067C27.709 25.6107 27.6683 25.52 27.6111 25.4397C27.5539 25.3595 27.4815 25.2913 27.398 25.239L24.75 23.584V19Z" fill="#FFA500"/>
</svg>
