<svg width="48" height="48" viewBox="0 0 48 48" fill="none" xmlns="http://www.w3.org/2000/svg">
<rect width="48" height="48" rx="24" fill="#4169E1" fill-opacity="0.1"/>
<path fill-rule="evenodd" clip-rule="evenodd" d="M22.6636 23.8387L22.8506 23.9997L22.6636 24.1607C20.6883 25.8636 19.0459 27.918 17.8196 30.2197C17.7088 30.4278 17.6514 30.6602 17.6524 30.896C17.6533 31.1318 17.7126 31.3637 17.825 31.5709C17.9374 31.7782 18.0994 31.9544 18.2965 32.0839C18.4936 32.2133 18.7197 32.2919 18.9546 32.3127L20.1286 32.4147C22.7046 32.6407 25.2946 32.6407 27.8706 32.4147L29.0446 32.3127C29.2794 32.2919 29.5055 32.2133 29.7026 32.0839C29.8997 31.9544 30.0617 31.7782 30.1741 31.5709C30.2865 31.3637 30.3458 31.1318 30.3468 30.896C30.3477 30.6602 30.2903 30.4278 30.1796 30.2197C28.9531 27.9183 27.3107 25.8643 25.3356 24.1617L25.1486 24.0017L25.3356 23.8397C27.3106 22.1373 28.953 20.0836 30.1796 17.7827C30.2905 17.5744 30.3481 17.342 30.3473 17.1061C30.3465 16.8701 30.2872 16.6381 30.1747 16.4307C30.0623 16.2233 29.9003 16.0469 29.703 15.9174C29.5058 15.788 29.2796 15.7094 29.0446 15.6887L27.8706 15.5867C25.2948 15.3617 22.7043 15.3617 20.1286 15.5867L18.9546 15.6887C18.7197 15.7094 18.4936 15.788 18.2965 15.9175C18.0994 16.0469 17.9374 16.2231 17.825 16.4304C17.7126 16.6377 17.6533 16.8695 17.6524 17.1053C17.6514 17.3411 17.7088 17.5735 17.8196 17.7817C19.0461 20.0826 20.6885 22.1363 22.6636 23.8387ZM23.9996 21.7497C23.8007 21.7495 23.6101 21.6703 23.4696 21.5297L21.4696 19.5297C21.3648 19.4248 21.2935 19.2912 21.2646 19.1458C21.2357 19.0004 21.2506 18.8497 21.3073 18.7127C21.364 18.5758 21.46 18.4587 21.5832 18.3763C21.7065 18.2938 21.8513 18.2498 21.9996 18.2497H25.9996C26.1478 18.2498 26.2927 18.2938 26.4159 18.3763C26.5391 18.4587 26.6351 18.5758 26.6919 18.7127C26.7486 18.8497 26.7634 19.0004 26.7345 19.1458C26.7057 19.2912 26.6343 19.4248 26.5296 19.5297L24.5296 21.5297C24.3891 21.6703 24.1984 21.7495 23.9996 21.7497ZM23.9996 26.2497C23.8007 26.2498 23.6101 26.329 23.4696 26.4697L21.4696 28.4697C21.3648 28.5745 21.2935 28.7081 21.2646 28.8535C21.2357 28.9989 21.2506 29.1496 21.3073 29.2866C21.364 29.4235 21.46 29.5406 21.5832 29.623C21.7065 29.7055 21.8513 29.7495 21.9996 29.7497H25.9996C26.1478 29.7495 26.2927 29.7055 26.4159 29.623C26.5391 29.5406 26.6351 29.4235 26.6919 29.2866C26.7486 29.1496 26.7634 28.9989 26.7345 28.8535C26.7057 28.7081 26.6343 28.5745 26.5296 28.4697L24.5296 26.4697C24.3891 26.329 24.1984 26.2498 23.9996 26.2497Z" fill="#4169E1"/>
</svg>
