<svg width="48" height="48" viewBox="0 0 48 48" fill="none" xmlns="http://www.w3.org/2000/svg">
<rect width="48" height="48" rx="24" fill="#4169E1" fill-opacity="0.1"/>
<path d="M22 15.75C21.0054 15.75 20.0516 16.1451 19.3483 16.8483C18.6451 17.5516 18.25 18.5054 18.25 19.5C18.25 20.4946 18.6451 21.4484 19.3483 22.1517C20.0516 22.8549 21.0054 23.25 22 23.25C22.9946 23.25 23.9484 22.8549 24.6517 22.1517C25.3549 21.4484 25.75 20.4946 25.75 19.5C25.75 18.5054 25.3549 17.5516 24.6517 16.8483C23.9484 16.1451 22.9946 15.75 22 15.75ZM18 25.25C17.0054 25.25 16.0516 25.6451 15.3483 26.3483C14.6451 27.0516 14.25 28.0054 14.25 29V30.188C14.25 30.942 14.796 31.584 15.54 31.705C17.75 32.066 19.983 32.241 22.216 32.229C22.372 32.228 22.466 32.055 22.39 31.919C21.8046 30.8747 21.4981 29.6972 21.5 28.5C21.5 27.713 21.63 26.956 21.87 26.25C21.8804 26.2188 21.8834 26.1856 21.8788 26.153C21.8742 26.1205 21.8622 26.0894 21.8436 26.0623C21.825 26.0352 21.8003 26.0127 21.7716 25.9967C21.7429 25.9807 21.7108 25.9716 21.678 25.97C21.0225 25.9405 20.374 25.8228 19.75 25.62L18.884 25.336C18.7085 25.2797 18.5253 25.2507 18.341 25.25H18ZM29.25 27C29.25 26.8011 29.171 26.6103 29.0303 26.4697C28.8897 26.329 28.6989 26.25 28.5 26.25C28.3011 26.25 28.1103 26.329 27.9697 26.4697C27.829 26.6103 27.75 26.8011 27.75 27V28.773C27.75 29.013 27.865 29.238 28.059 29.379L29.059 30.107C29.22 30.224 29.4208 30.2722 29.6174 30.241C29.8139 30.2099 29.99 30.102 30.107 29.941C30.224 29.78 30.2722 29.5792 30.241 29.3826C30.2099 29.1861 30.102 29.01 29.941 28.893L29.25 28.391V27Z" fill="#4169E1"/>
<path fill-rule="evenodd" clip-rule="evenodd" d="M28.5 34C29.9587 34 31.3576 33.4205 32.3891 32.3891C33.4205 31.3576 34 29.9587 34 28.5C34 27.0413 33.4205 25.6424 32.3891 24.6109C31.3576 23.5795 29.9587 23 28.5 23C27.0413 23 25.6424 23.5795 24.6109 24.6109C23.5795 25.6424 23 27.0413 23 28.5C23 29.9587 23.5795 31.3576 24.6109 32.3891C25.6424 33.4205 27.0413 34 28.5 34ZM28.5 32.5C29.5609 32.5 30.5783 32.0786 31.3284 31.3284C32.0786 30.5783 32.5 29.5609 32.5 28.5C32.5 27.4391 32.0786 26.4217 31.3284 25.6716C30.5783 24.9214 29.5609 24.5 28.5 24.5C27.4391 24.5 26.4217 24.9214 25.6716 25.6716C24.9214 26.4217 24.5 27.4391 24.5 28.5C24.5 29.5609 24.9214 30.5783 25.6716 31.3284C26.4217 32.0786 27.4391 32.5 28.5 32.5Z" fill="#4169E1"/>
</svg>
