<svg width="60" height="60" viewBox="0 0 60 60" fill="none" xmlns="http://www.w3.org/2000/svg">
<rect width="60" height="60" rx="18" fill="#FF7F50" fill-opacity="0.1"/>
<path d="M32.73 17.25C32.73 17.1029 32.6868 16.9589 32.6056 16.8362C32.5244 16.7135 32.4089 16.6173 32.2734 16.5598C32.138 16.5022 31.9886 16.4857 31.8439 16.5125C31.6992 16.5392 31.5655 16.6079 31.4595 16.71L28.7925 19.275C24.8232 23.0936 21.4685 27.5032 18.8475 32.3475C18.7831 32.4616 18.7496 32.5906 18.7505 32.7216C18.7514 32.8526 18.7866 32.9811 18.8526 33.0943C18.9186 33.2075 19.0131 33.3014 19.1267 33.3667C19.2403 33.432 19.369 33.4664 19.5 33.4665H25.965V44.25C25.9649 44.3955 26.007 44.5379 26.0863 44.6599C26.1656 44.7819 26.2787 44.8781 26.4118 44.9369C26.5449 44.9958 26.6922 45.0146 26.8358 44.9912C26.9794 44.9678 27.1131 44.9031 27.2205 44.805L28.413 43.7175C32.5901 39.9125 36.1349 35.4669 38.9145 30.5475L39.6525 29.2425C39.7174 29.1284 39.7511 28.9993 39.7504 28.868C39.7497 28.7368 39.7146 28.608 39.6486 28.4946C39.5825 28.3812 39.4879 28.2871 39.3741 28.2217C39.2603 28.1563 39.1313 28.1219 39 28.122H32.73V17.25Z" fill="#FF5212"/>
</svg>
