<svg width="60" height="60" viewBox="0 0 60 60" fill="none" xmlns="http://www.w3.org/2000/svg">
<rect width="60" height="60" rx="18" fill="#4169E1" fill-opacity="0.1"/>
<path d="M28.875 16.8659C28.875 16.6919 28.725 16.5539 28.551 16.5719C25.0408 16.9307 21.7885 18.5791 19.4237 21.1979C17.0589 23.8168 15.7499 27.2199 15.75 30.7484C15.75 33.5714 16.5884 36.3308 18.159 38.6766C19.7296 41.0223 21.9616 42.8487 24.5717 43.9241C27.1819 44.9995 30.0527 45.2753 32.8198 44.7167C35.587 44.1581 38.1259 42.7901 40.1145 40.7864C40.1435 40.757 40.1661 40.7217 40.1806 40.683C40.1952 40.6443 40.2015 40.603 40.1991 40.5617C40.1967 40.5204 40.1857 40.4801 40.1667 40.4434C40.1477 40.4066 40.1213 40.3743 40.089 40.3484L29.2935 31.6229C29.163 31.5176 29.0576 31.3843 28.9852 31.233C28.9128 31.0817 28.8751 30.9161 28.875 30.7484V16.8659Z" fill="#4169E1"/>
<path d="M41.505 38.6007C41.64 38.7102 41.841 38.6817 41.937 38.5347C43.1813 36.6324 43.9499 34.4588 44.178 32.1972C44.1818 32.1562 44.1769 32.1148 44.1638 32.0758C44.1506 32.0368 44.1294 32.0009 44.1016 31.9706C44.0738 31.9402 44.0399 31.916 44.0022 31.8995C43.9645 31.883 43.9237 31.8745 43.8825 31.8747H34.0305C33.9686 31.8748 33.9083 31.8941 33.8578 31.9298C33.8073 31.9655 33.7691 32.016 33.7484 32.0743C33.7277 32.1327 33.7255 32.1959 33.7422 32.2555C33.7589 32.3151 33.7935 32.3681 33.8415 32.4072L41.505 38.6007ZM43.8825 29.6247C44.0565 29.6247 44.1945 29.4747 44.178 29.3007C43.8449 26.0383 42.3968 22.9906 40.078 20.6717C37.7591 18.3529 34.7114 16.9048 31.449 16.5717C31.4079 16.5677 31.3664 16.5724 31.3272 16.5854C31.2879 16.5985 31.2519 16.6196 31.2214 16.6475C31.1908 16.6753 31.1665 16.7093 31.1499 16.7471C31.1333 16.785 31.1248 16.8259 31.125 16.8672V29.1747C31.125 29.294 31.1724 29.4085 31.2568 29.4929C31.3412 29.5773 31.4557 29.6247 31.575 29.6247H43.8825Z" fill="#4169E1"/>
</svg>
