<svg width="25" height="25" viewBox="0 0 25 25" fill="none" xmlns="http://www.w3.org/2000/svg">
<path d="M7.84064 18.542L6.3922 17.0936C5.99376 16.6951 5.85314 16.1186 6.03126 15.5842C6.17189 15.167 6.35939 14.6233 6.58439 13.9998H1.62502C1.22189 13.9998 0.84689 13.7842 0.645327 13.4326C0.443765 13.0811 0.448452 12.6498 0.654702 12.303L3.11564 8.15452C3.72501 7.12796 4.82658 6.49983 6.0172 6.49983H9.87502C9.98752 6.31233 10.1 6.13889 10.2125 5.97014C14.0516 0.307644 19.7703 0.120144 23.1828 0.748269C23.7266 0.846707 24.1485 1.27327 24.2516 1.81702C24.8797 5.23421 24.6875 10.9483 19.0297 14.7873C18.8656 14.8998 18.6875 15.0123 18.5 15.1248V18.9826C18.5 20.1733 17.8719 21.2795 16.8453 21.8842L12.6969 24.3451C12.35 24.5514 11.9188 24.5561 11.5672 24.3545C11.2156 24.153 11 23.7826 11 23.3748V18.3498C10.3391 18.5795 9.76252 18.767 9.32658 18.9076C8.80158 19.0764 8.2297 18.9311 7.83595 18.542H7.84064ZM18.5 8.37483C18.9973 8.37483 19.4742 8.17729 19.8258 7.82566C20.1775 7.47403 20.375 6.99711 20.375 6.49983C20.375 6.00255 20.1775 5.52564 19.8258 5.17401C19.4742 4.82238 18.9973 4.62483 18.5 4.62483C18.0027 4.62483 17.5258 4.82238 17.1742 5.17401C16.8226 5.52564 16.625 6.00255 16.625 6.49983C16.625 6.99711 16.8226 7.47403 17.1742 7.82566C17.5258 8.17729 18.0027 8.37483 18.5 8.37483Z" fill="white"/>
</svg>
