<svg width="39" height="38" viewBox="0 0 39 38" fill="none" xmlns="http://www.w3.org/2000/svg">
<g clip-path="url(#clip0_86_15987)">
<path d="M19.4351 7.96642L13.6178 12.678C12.6502 13.4592 12.4639 14.8655 13.1971 15.8691C13.9724 16.9388 15.4808 17.1491 16.5204 16.3378L22.488 11.6984C22.9087 11.3739 23.5096 11.446 23.8401 11.8667C24.1707 12.2873 24.0925 12.8883 23.6719 13.2188L22.4159 14.1924L30.7692 21.8847V10.5385H30.7272L30.4928 10.3883L26.1298 7.59383C25.2103 7.00488 24.1346 6.69238 23.0409 6.69238C21.7308 6.69238 20.4567 7.1431 19.4351 7.96642ZM20.8053 15.4424L17.6983 17.8582C15.8053 19.3366 13.0589 18.952 11.6406 17.0049C10.3065 15.172 10.643 12.6119 12.4038 11.1876L17.4038 7.1431C16.7067 6.84863 15.9555 6.69839 15.1923 6.69839C14.0625 6.69238 12.9627 7.02892 12.0192 7.65392L7.69231 10.5385V24.0001H9.38702L14.8798 29.0121C16.0577 30.0878 17.8786 30.0037 18.9543 28.8258C19.2849 28.4592 19.5072 28.0325 19.6214 27.5878L20.643 28.5253C21.8149 29.601 23.6418 29.5229 24.7175 28.351C24.988 28.0566 25.1863 27.714 25.3125 27.3595C26.4784 28.1407 28.0649 27.9784 29.0445 26.9087C30.1202 25.7369 30.0421 23.9099 28.8702 22.8342L20.8053 15.4424ZM0.961538 10.5385C0.432692 10.5385 0 10.9712 0 11.5001V24.0001C0 25.0638 0.859375 25.9232 1.92308 25.9232H3.84615C4.90986 25.9232 5.76923 25.0638 5.76923 24.0001V10.5385H0.961538ZM2.88462 22.077C3.13963 22.077 3.3842 22.1783 3.56453 22.3586C3.74485 22.5389 3.84615 22.7835 3.84615 23.0385C3.84615 23.2936 3.74485 23.5381 3.56453 23.7184C3.3842 23.8988 3.13963 24.0001 2.88462 24.0001C2.6296 24.0001 2.38503 23.8988 2.2047 23.7184C2.02438 23.5381 1.92308 23.2936 1.92308 23.0385C1.92308 22.7835 2.02438 22.5389 2.2047 22.3586C2.38503 22.1783 2.6296 22.077 2.88462 22.077ZM32.6923 10.5385V24.0001C32.6923 25.0638 33.5517 25.9232 34.6154 25.9232H36.5385C37.6022 25.9232 38.4615 25.0638 38.4615 24.0001V11.5001C38.4615 10.9712 38.0288 10.5385 37.5 10.5385H32.6923ZM34.6154 23.0385C34.6154 22.7835 34.7167 22.5389 34.897 22.3586C35.0773 22.1783 35.3219 22.077 35.5769 22.077C35.8319 22.077 36.0765 22.1783 36.2568 22.3586C36.4372 22.5389 36.5385 22.7835 36.5385 23.0385C36.5385 23.2936 36.4372 23.5381 36.2568 23.7184C36.0765 23.8988 35.8319 24.0001 35.5769 24.0001C35.3219 24.0001 35.0773 23.8988 34.897 23.7184C34.7167 23.5381 34.6154 23.2936 34.6154 23.0385Z" fill="white"/>
</g>
<defs>
<clipPath id="clip0_86_15987">
<rect width="38.4615" height="30.7692" fill="white" transform="translate(0 2.84619)"/>
</clipPath>
</defs>
</svg>
