<svg width="40" height="40" viewBox="0 0 40 40" fill="none" xmlns="http://www.w3.org/2000/svg">
<path d="M0 20C0 8.95431 8.95431 0 20 0C31.0457 0 40 8.95431 40 20C40 31.0457 31.0457 40 20 40C8.95431 40 0 31.0457 0 20Z" fill="#FFD4C5"/>
<path fill-rule="evenodd" clip-rule="evenodd" d="M11.25 20C11.25 17.6794 12.1719 15.4538 13.8128 13.8128C15.4538 12.1719 17.6794 11.25 20 11.25C22.3206 11.25 24.5462 12.1719 26.1872 13.8128C27.8281 15.4538 28.75 17.6794 28.75 20C28.75 22.3206 27.8281 24.5462 26.1872 26.1872C24.5462 27.8281 22.3206 28.75 20 28.75C17.6794 28.75 15.4538 27.8281 13.8128 26.1872C12.1719 24.5462 11.25 22.3206 11.25 20ZM20 14.25C20.1989 14.25 20.3897 14.329 20.5303 14.4697C20.671 14.6103 20.75 14.8011 20.75 15V20C20.75 20.1989 20.671 20.3897 20.5303 20.5303C20.3897 20.671 20.1989 20.75 20 20.75C19.8011 20.75 19.6103 20.671 19.4697 20.5303C19.329 20.3897 19.25 20.1989 19.25 20V15C19.25 14.8011 19.329 14.6103 19.4697 14.4697C19.6103 14.329 19.8011 14.25 20 14.25ZM18 16.082C18 15.899 17.81 15.78 17.652 15.87C16.7407 16.3882 16.0265 17.1933 15.6206 18.1598C15.2146 19.1263 15.1398 20.2 15.4078 21.2134C15.6759 22.2269 16.2716 23.1233 17.1022 23.7628C17.9328 24.4023 18.9517 24.7491 20 24.7491C21.0483 24.7491 22.0672 24.4023 22.8978 23.7628C23.7284 23.1233 24.3241 22.2269 24.5921 21.2134C24.8602 20.2 24.7854 19.1263 24.3794 18.1598C23.9735 17.1933 23.2593 16.3882 22.348 15.87C22.189 15.78 22 15.9 22 16.082V17.316C22 17.393 22.036 17.466 22.095 17.515C22.6044 17.9445 22.9695 18.5202 23.1408 19.1641C23.3121 19.808 23.2813 20.489 23.0527 21.1149C22.824 21.7407 22.4086 22.2812 21.8625 22.663C21.3165 23.0449 20.6663 23.2496 20 23.2496C19.3337 23.2496 18.6835 23.0449 18.1375 22.663C17.5914 22.2812 17.176 21.7407 16.9473 21.1149C16.7187 20.489 16.6879 19.808 16.8592 19.1641C17.0305 18.5202 17.3956 17.9445 17.905 17.515C17.9345 17.4908 17.9582 17.4605 17.9746 17.4261C17.9911 17.3917 17.9997 17.3541 18 17.316V16.082Z" fill="#FF7F50"/>
</svg>
