<svg width="48" height="48" viewBox="0 0 48 48" fill="none" xmlns="http://www.w3.org/2000/svg">
<rect width="48" height="48" rx="24" fill="#98FB98" fill-opacity="0.1"/>
<path d="M21.375 32.4002C21.4069 32.4286 21.4472 32.4458 21.4897 32.4492C21.5323 32.4526 21.5748 32.442 21.6108 32.419C21.6468 32.3961 21.6743 32.362 21.6891 32.3219C21.704 32.2819 21.7053 32.2381 21.693 32.1972L19.173 23.5592C19.1503 23.4805 19.1039 23.4107 19.0403 23.3592C18.9766 23.3077 18.8987 23.277 18.817 23.2712C18.409 23.2412 18.0016 23.2079 17.595 23.1712L14.225 22.8642C14.1893 22.8607 14.1534 22.867 14.1211 22.8823C14.0887 22.8976 14.0611 22.9214 14.0412 22.9512C14.0213 22.9809 14.0099 23.0155 14.0081 23.0513C14.0063 23.087 14.0142 23.1226 14.031 23.1542C15.854 26.5642 18.479 29.8142 21.375 32.4002ZM23.847 34.2262C23.867 34.2962 23.927 34.3482 24 34.3482C24.0354 34.3477 24.0696 34.3354 24.0973 34.3133C24.125 34.2912 24.1446 34.2606 24.153 34.2262L27.237 23.6532C27.2462 23.6225 27.2478 23.59 27.2418 23.5586C27.2358 23.5271 27.2224 23.4975 27.2026 23.4723C27.1828 23.4471 27.1572 23.4271 27.1281 23.4138C27.0989 23.4006 27.067 23.3945 27.035 23.3962C25.0126 23.4827 22.9874 23.4827 20.965 23.3962C20.9331 23.3946 20.9013 23.4006 20.8722 23.4138C20.8432 23.427 20.8177 23.447 20.7979 23.4721C20.7781 23.4971 20.7646 23.5265 20.7586 23.5579C20.7525 23.5892 20.754 23.6216 20.763 23.6522L23.847 34.2262ZM26.307 32.1972C26.251 32.3872 26.477 32.5322 26.625 32.4002C29.521 29.8132 32.146 26.5642 33.969 23.1542C33.9857 23.1227 33.9936 23.0872 33.9918 23.0515C33.9901 23.0159 33.9787 22.9814 33.9589 22.9517C33.9391 22.9219 33.9117 22.8981 33.8795 22.8827C33.8473 22.8673 33.8115 22.8609 33.776 22.8642L30.406 23.1712C29.998 23.2079 29.5903 23.2412 29.183 23.2712C29.1013 23.277 29.0234 23.3077 28.9597 23.3592C28.896 23.4107 28.8497 23.4805 28.827 23.5592L26.307 32.1972ZM33.801 21.3562C33.8358 21.3531 33.8693 21.341 33.898 21.3209C33.9267 21.3009 33.9496 21.2737 33.9645 21.242C33.9794 21.2103 33.9857 21.1753 33.9828 21.1404C33.9799 21.1055 33.9679 21.072 33.948 21.0432L30.71 16.3482C30.572 16.1482 30.3875 15.9848 30.1724 15.8719C29.9572 15.7591 29.7179 15.7001 29.475 15.7002H26.985C26.9521 15.7002 26.9198 15.7083 26.8908 15.7237C26.8618 15.7392 26.8371 15.7616 26.8188 15.7888C26.8006 15.8161 26.7893 15.8475 26.786 15.8802C26.7827 15.9128 26.7875 15.9458 26.8 15.9762L29.057 21.4992C29.089 21.5773 29.145 21.6433 29.2169 21.6877C29.2887 21.732 29.3728 21.7525 29.457 21.7462C29.7276 21.7255 29.9986 21.7022 30.27 21.6762L33.801 21.3562ZM25.165 15.9462C25.1345 15.8732 25.0831 15.8109 25.0173 15.7671C24.9514 15.7233 24.8741 15.7 24.795 15.7002H23.205C23.1259 15.7 23.0485 15.7233 22.9827 15.7671C22.9168 15.8109 22.8654 15.8732 22.835 15.9462L20.477 21.6042C20.4648 21.6338 20.4598 21.6659 20.4626 21.6978C20.4654 21.7297 20.4758 21.7605 20.493 21.7875C20.5101 21.8146 20.5335 21.8371 20.5612 21.8532C20.5888 21.8694 20.62 21.8786 20.652 21.8802C22.882 21.9882 25.118 21.9882 27.349 21.8802C27.3809 21.8785 27.4119 21.8691 27.4394 21.8529C27.467 21.8367 27.4902 21.8142 27.5073 21.7872C27.5243 21.7601 27.5346 21.7294 27.5374 21.6976C27.5401 21.6657 27.5352 21.6337 27.523 21.6042L25.165 15.9462ZM21.2 15.9762C21.2125 15.9458 21.2173 15.9128 21.214 15.8802C21.2107 15.8475 21.1994 15.8161 21.1811 15.7888C21.1628 15.7616 21.1381 15.7392 21.1091 15.7237C21.0802 15.7083 21.0478 15.7002 21.015 15.7002H18.525C18.282 15.7001 18.0427 15.7591 17.8276 15.8719C17.6125 15.9848 17.428 16.1482 17.29 16.3482L14.052 21.0432C14.0321 21.072 14.0201 21.1055 14.0172 21.1404C14.0143 21.1753 14.0206 21.2103 14.0354 21.242C14.0503 21.2737 14.0733 21.3009 14.102 21.3209C14.1306 21.341 14.1641 21.3531 14.199 21.3562L17.73 21.6762C18.0006 21.7022 18.2716 21.7255 18.543 21.7462C18.6272 21.7525 18.7112 21.732 18.7831 21.6877C18.8549 21.6433 18.9109 21.5773 18.943 21.4992L21.2 15.9762Z" fill="#08CE08"/>
</svg>
