<svg width="48" height="48" viewBox="0 0 48 48" fill="none" xmlns="http://www.w3.org/2000/svg">
<rect width="48" height="48" rx="24" fill="#4169E1" fill-opacity="0.1"/>
<path d="M19.75 16C19.75 15.8011 19.671 15.6103 19.5303 15.4697C19.3897 15.329 19.1989 15.25 19 15.25C18.8011 15.25 18.6103 15.329 18.4697 15.4697C18.329 15.6103 18.25 15.8011 18.25 16V17.816C17.5205 17.9195 16.8448 18.2588 16.3262 18.7823C15.8077 19.3057 15.4746 19.9845 15.378 20.715L15.291 21.368C15.2763 21.478 15.2623 21.5887 15.249 21.7C15.2409 21.7693 15.2477 21.8395 15.2687 21.906C15.2898 21.9725 15.3248 22.0337 15.3713 22.0857C15.4178 22.1377 15.4748 22.1792 15.5385 22.2075C15.6022 22.2358 15.6713 22.2503 15.741 22.25H32.26C32.3298 22.2503 32.3988 22.2358 32.4625 22.2075C32.5262 22.1792 32.5832 22.1377 32.6297 22.0857C32.6763 22.0337 32.7112 21.9725 32.7323 21.906C32.7533 21.8395 32.7601 21.7693 32.752 21.7L32.71 21.368L32.623 20.715C32.5264 19.9845 32.1934 19.3057 31.6748 18.7823C31.1562 18.2588 30.4805 17.9195 29.751 17.816V16C29.751 15.8011 29.672 15.6103 29.5313 15.4697C29.3907 15.329 29.1999 15.25 29.001 15.25C28.8021 15.25 28.6113 15.329 28.4707 15.4697C28.33 15.6103 28.251 15.8011 28.251 16V17.668C25.4232 17.4166 22.5788 17.4166 19.751 17.668L19.75 16ZM32.945 24.226C32.9403 24.0978 32.886 23.9764 32.7934 23.8876C32.7008 23.7987 32.5773 23.7494 32.449 23.75H15.551C15.4227 23.7494 15.2992 23.7987 15.2066 23.8876C15.1141 23.9764 15.0597 24.0978 15.055 24.226C14.9959 26.0357 15.1064 27.8469 15.385 29.636C15.4877 30.2951 15.8065 30.9015 16.2912 31.3598C16.7759 31.8181 17.3992 32.1024 18.063 32.168L19.256 32.286C22.411 32.596 25.589 32.596 28.744 32.286L29.937 32.168C30.6009 32.1024 31.2241 31.8181 31.7088 31.3598C32.1936 30.9015 32.5123 30.2951 32.615 29.636C32.8937 27.8469 33.0041 26.0357 32.945 24.226Z" fill="#4169E1"/>
</svg>
