<svg width="48" height="48" viewBox="0 0 48 48" fill="none" xmlns="http://www.w3.org/2000/svg">
<rect width="48" height="48" rx="24" fill="#98FB98" fill-opacity="0.1"/>
<path d="M19.317 15.7686C22.4295 15.4235 25.5705 15.4235 28.683 15.7686C29.2441 15.8317 29.7854 16.0128 30.2715 16.3001C30.7575 16.5875 31.1772 16.9744 31.503 17.4356L23.5 25.4386L21.03 22.9686C20.9608 22.897 20.878 22.8399 20.7865 22.8006C20.695 22.7613 20.5965 22.7407 20.4969 22.7399C20.3974 22.7391 20.2986 22.7581 20.2065 22.7958C20.1143 22.8336 20.0306 22.8893 19.9602 22.9598C19.8898 23.0302 19.8342 23.114 19.7965 23.2062C19.7588 23.2984 19.7399 23.3971 19.7408 23.4967C19.7417 23.5963 19.7625 23.6947 19.8018 23.7862C19.8412 23.8777 19.8983 23.9604 19.97 24.0296L22.97 27.0296C23.1106 27.17 23.3013 27.2489 23.5 27.2489C23.6988 27.2489 23.8894 27.17 24.03 27.0296L32.146 18.9146C32.168 19.0239 32.1857 19.1349 32.199 19.2476C32.569 22.4046 32.569 25.5946 32.199 28.7516C31.984 30.5876 30.509 32.0266 28.683 32.2316C25.5705 32.5766 22.4295 32.5766 19.317 32.2316C17.49 32.0266 16.015 30.5876 15.801 28.7516C15.4326 25.5943 15.4326 22.4048 15.801 19.2476C16.015 17.4106 17.491 15.9726 19.317 15.7676" fill="#4CAF50"/>
</svg>
