<svg width="48" height="48" viewBox="0 0 48 48" fill="none" xmlns="http://www.w3.org/2000/svg">
<rect width="48" height="48" rx="24" fill="#4169E1" fill-opacity="0.1"/>
<path fill-rule="evenodd" clip-rule="evenodd" d="M33.01 22.671L33.013 26.294C32.987 26.6393 32.954 26.984 32.914 27.328C32.8786 27.6116 32.7485 27.8749 32.5449 28.0754C32.3413 28.2759 32.0761 28.4019 31.792 28.433C29.952 28.639 28.048 28.639 26.208 28.433C25.9239 28.4019 25.6586 28.2759 25.455 28.0754C25.2514 27.8749 25.1214 27.6116 25.086 27.328C24.8658 25.4491 24.8658 23.5509 25.086 21.672C25.1214 21.3884 25.2514 21.1251 25.455 20.9246C25.6586 20.7241 25.9239 20.5981 26.208 20.567C28.0637 20.3618 29.9363 20.3618 31.792 20.567C32.379 20.632 32.847 21.097 32.914 21.672C32.9527 22.0047 32.9847 22.338 33.01 22.672M29 23C28.6022 23 28.2206 23.158 27.9393 23.4393C27.658 23.7206 27.5 24.1022 27.5 24.5C27.5 24.8978 27.658 25.2794 27.9393 25.5607C28.2206 25.842 28.6022 26 29 26C29.3978 26 29.7793 25.842 30.0606 25.5607C30.342 25.2794 30.5 24.8978 30.5 24.5C30.5 24.1022 30.342 23.7206 30.0606 23.4393C29.7793 23.158 29.3978 23 29 23Z" fill="#204BCD"/>
<path d="M32.404 18.5401C32.559 18.8091 32.267 19.1101 31.958 19.0761C29.9919 18.8594 28.008 18.8594 26.042 19.0761C25.4209 19.1447 24.8412 19.4213 24.3971 19.861C23.9531 20.3007 23.6707 20.8776 23.596 21.4981C23.3641 23.4927 23.3641 25.5075 23.596 27.5021C23.6707 28.1225 23.9531 28.6994 24.3971 29.1391C24.8412 29.5788 25.4209 29.8555 26.042 29.9241C28.008 30.1408 29.9919 30.1408 31.958 29.9241C32.269 29.8891 32.564 30.1931 32.407 30.4641C32.0144 31.1413 31.4674 31.7162 30.8105 32.1419C30.1536 32.5676 29.4055 32.8322 28.627 32.9141L27.975 32.9821C24.6641 33.3299 21.3247 33.3067 18.019 32.9131L17.587 32.8621C16.7204 32.7591 15.9127 32.3707 15.2913 31.7579C14.6699 31.1452 14.2701 30.3431 14.155 29.4781C13.7137 26.1741 13.7137 22.8261 14.155 19.5221C14.2701 18.657 14.6699 17.8549 15.2913 17.2422C15.9127 16.6295 16.7204 16.241 17.587 16.1381L18.019 16.0871C21.3247 15.6934 24.6641 15.6703 27.975 16.0181L28.627 16.0871C29.4055 16.1689 30.1535 16.4338 30.81 16.8602C31.4664 17.2865 32.0126 17.8622 32.404 18.5401Z" fill="#204BCD"/>
</svg>
